<?xml version="1.0" encoding="utf-8"?>
<!-- Generator: Adobe Illustrator 22.1.0, SVG Export Plug-In . SVG Version: 6.00 Build 0)  -->
<svg version="1.1" id="Layer_1" xmlns="http://www.w3.org/2000/svg" xmlns:xlink="http://www.w3.org/1999/xlink" x="0px" y="0px"
	 viewBox="0 0 1097.1 301.1" style="enable-background:new 0 0 1097.1 301.1;" xml:space="preserve">
<style type="text/css">
	.st0{fill:#272727;}
	.st1{fill:#0B6161;}
	.st2{fill:#0F6666;}
	.st3{fill:#189998;}
	.st4{fill:#127B7B;}
	.st5{fill:#22AAA9;}
	.st6{fill:#1D7877;}
	.st7{fill:#1A9696;}
	.st8{fill:#388F8F;}
	.st9{fill:#1B6C6B;}
	.st10{fill:#D5D49A;}
	.st11{fill:#1FAAA9;}
	.st12{fill:#26BAB9;}
	.st13{fill:#3E4D24;}
	.st14{fill:#748F46;}
	.st15{fill:#8D471C;}
	.st16{fill:#415127;}
	.st17{fill:#435328;}
	.st18{fill:#6B833F;}
	.st19{fill:#576D34;}
	.st20{fill:#4C5E2D;}
	.st21{fill:#4F622F;}
	.st22{fill:#455629;}
	.st23{fill:#708943;}
	.st24{fill:#6E8741;}
	.st25{fill:#526630;}
	.st26{fill:#728D44;}
	.st27{fill:#3E4D25;}
	.st28{fill:#9E5021;}
	.st29{fill:#6E8841;}
	.st30{fill:#67803D;}
	.st31{fill:#728D45;}
	.st32{fill:#708A43;}
	.st33{fill:#495A2B;}
	.st34{fill:#506330;}
	.st35{fill:#673415;}
	.st36{fill:#4D602E;}
	.st37{fill:#536831;}
	.st38{fill:#60773A;}
	.st39{fill:#425228;}
	.st40{fill:#576C34;}
	.st41{fill:#425027;}
	.st42{fill:#647C3C;}
	.st43{fill:#5F7639;}
	.st44{fill:#5D7338;}
	.st45{fill:#68803E;}
	.st46{fill:#5A7036;}
	.st47{fill:#7F431E;}
	.st48{fill:#6A3717;}
	.st49{fill:#6C8541;}
	.st50{fill:#69813F;}
	.st51{fill:#61793B;}
	.st52{fill:#6D8542;}
	.st53{fill:#5F7539;}
	.st54{fill:#738D48;}
	.st55{fill:#637A3C;}
	.st56{fill:#5F743B;}
	.st57{fill:#758F4A;}
	.st58{fill:#718848;}
	.st59{fill:#718947;}
	.st60{fill:#9E501F;}
	.st61{fill:#9B4E1F;}
	.st62{fill:#804019;}
	.st63{fill:#844219;}
	.st64{fill:#6F3815;}
	.st65{fill:#80411B;}
	.st66{fill:#9F5020;}
	.st67{fill:#A25321;}
	.st68{fill:#A55524;}
	.st69{fill:#405026;}
	.st70{fill:#954B1E;}
	.st71{fill:#773C17;}
	.st72{fill:#88441B;}
	.st73{fill:#9A4E1F;}
	.st74{fill:#8B461C;}
	.st75{fill:#485A2B;}
	.st76{fill:#4D5F2D;}
	.st77{fill:#46572A;}
	.st78{fill:#974C1E;}
	.st79{fill:#8F481C;}
	.st80{fill:#944A1D;}
	.st81{fill:#77914B;}
	.st82{fill:#738C49;}
	.st83{fill:#748C4A;}
	.st84{fill:#435428;}
	.st85{fill:#688040;}
	.st86{fill:#677F3D;}
	.st87{fill:#6C8443;}
	.st88{fill:#546932;}
	.st89{fill:#5B7136;}
	.st90{fill:#62793B;}
	.st91{fill:#4E602E;}
	.st92{fill:#5C7138;}
	.st93{fill:#46582A;}
	.st94{fill:#495B2B;}
	.st95{fill:#4A5C2C;}
	.st96{fill:#708748;}
	.st97{fill:#6B8341;}
	.st98{fill:#6B8440;}
	.st99{fill:#596F36;}
	.st100{fill:#556A32;}
	.st101{fill:#50632F;}
	.st102{fill:#5D7337;}
	.st103{fill:#69813E;}
	.st104{fill:#526731;}
	.st105{fill:#526631;}
	.st106{fill:#68803D;}
	.st107{fill:#7B954E;}
	.st108{fill:#7E9851;}
	.st109{fill:#010000;}
	.st110{fill:#934A1D;}
	.st111{fill:#90481C;}
	.st112{fill:#050505;}
	.st113{fill:#0B0A0A;}
	.st114{fill:#7B944F;}
	.st115{fill:#789050;}
	.st116{fill:#647B3E;}
	.st117{fill:#4C5F2D;}
	.st118{fill:#48592B;}
	.st119{fill:#445529;}
	.st120{fill:#546832;}
	.st121{fill:#506430;}
	.st122{fill:#536832;}
	.st123{fill:#5C7238;}
	.st124{fill:#131313;}
	.st125{fill:#809956;}
	.st126{fill:#869F5C;}
</style>
<g>
	<path class="st0" d="M1,227c94.9-3.1,189.8-6.9,284.7-8.9c53.9-1.2,107.9,0.4,161.9,0.8c101.1,0.7,202.2,1.5,303.3,2.2
		c1.2,0,2.3,0.1,3.5,0.2c15.9,0.6,31.8,0.1,47.7,0.2c2.8,0.4,107,0.8,112.8,0.9c7.4,0.1,14.9-0.4,22.3,0.3c31.7,0.1,63.3,0.2,95,0.4
		c21.7,0.1,43.3,0.5,65,0.8c0,25.7,0,51.3,0,77c-363.8,0-727.7,0-1091.5,0.1c-3.7,0-4.6-0.8-4.6-4.6C1.1,273.3,1,250.2,1,227z"/>
</g>
<g>
	<path class="st1" d="M942.8,162.8c-0.7-1.8,0.4-2.4,1.9-2.5c10.1-0.6,20.1-2.3,30.2-2.2c0.1,3.5-3.3,4-5,6
		c-3.7,3.2-8.5,1.5-12.7,2.7c-0.8,0.2-1.5,0.3-2.3,0.3c-3.2-0.1-6-1.4-9-2.3C944.8,164.4,943.5,164.1,942.8,162.8z"/>
	<path class="st2" d="M980.1,169.1c-1.4,1.9-3.5,2.4-5.5,3c-11.2,3-22.5,3.7-33.9,1.6c-2.1-0.4-4.3-0.7-5.8-2.6
		c-0.3-0.6-0.2-1.1,0.4-1.5c5.3-0.4,10.5-0.1,15.8,0c8.3,0.1,16.4-0.9,24.5-2.8C977.3,166.5,980.5,164.6,980.1,169.1z"/>
	<path class="st3" d="M956.9,165.9c4.1-2.1,9.3,0.5,13.1-2.9c1.3-0.5,2.4-0.2,3.6,0.4c0.5,0.3,0.7,0.7,0.7,1.3
		c-1.9,3.7-5.8,3.1-8.9,4.3c-9.7,1.6-19.3,2.9-29-0.1c-1.5-2.6,0.4-3.7,2.3-3.9c3.5-0.4-1.5-1.6,0.3-2c1.3-0.1,2.5-0.1,3.8-0.2
		c1.1,0.2,2.4-0.1,3.2,1.1c2.2,3.4,5.7,2.9,8.9,3.1c1.8,0.1,3.6,0.2,5.5-0.1c-0.6,0.4,0.4-0.8,0.5-0.1s0-0.4,0.5,0s0.7,0.1,0,0
		C959.9,166.5,958.1,167.7,956.9,165.9z"/>
	<path class="st4" d="M936.2,168.1c10,3.7,19.9,1.5,29.8-0.1c3.3-0.8,6.8-1.1,9.8-3.2c0.4-0.2,0.9-0.3,1.3-0.4
		c1.5-0.2,2.8,0.2,3.7,1.6c0,1.1,0.9,2.4-0.7,3.2c-0.7-3.5-2.9-1.2-4.2-0.9c-13.5,3.2-27.1,3.8-40.8,1.8c-0.3-0.2-0.5-0.4-0.4-0.7
		s0.2-0.4,0.3-0.4l0,0C935.4,168.7,935.5,168,936.2,168.1z"/>
	<path class="st5" d="M936.2,168.1c-0.4,0.3-0.8,0.5-1.3,0.8c0.2-2.1-1.4-1.8-2.7-2c-3.5-0.6-7.1-1.2-10.6-2.3
		c5.8-1.1,11.5-2,17.4-1.6c0.7,1.2,2,0.9,3.2,1.2C940.4,166.2,937.1,165.2,936.2,168.1z"/>
	<path class="st6" d="M927,171.9c-5.2,0.9-10.4,1.8-15.6,2.7c-2,0.3-3.9,0.4-5.9-0.3c-0.8-0.3-1.7-0.4-1.7-1.5c0.1-1,1-1.2,1.7-1.4
		c3.8-1.2,7.7-0.2,11.5-0.3C920.5,170.7,923.9,169.2,927,171.9z"/>
	<path class="st7" d="M973,164c-1-0.3-2-0.7-3.1-1c1.1-2.2,4-2.5,5-4.8c2.9,1.7,6.5,0.8,9.4,2.6C981.4,164.6,977.1,163.8,973,164z"
		/>
	<path class="st8" d="M927,171.9c-3.2-1.9-6.6-0.3-9.9-0.8c3.7-1.8,7.7-0.7,11.6-1.2c2.1-0.3,4.3,0.1,6.2-1c0,0.4,0.1,0.8,0.1,1.1
		c-0.1,0.4-0.1,0.8-0.2,1.1C932.2,171.4,929.6,171.7,927,171.9z"/>
	<path class="st9" d="M980.8,166c-1.2-0.3-2.5-0.7-3.7-1c2.3-2.9,5.6-2.8,8.8-3.3c1.8,2.3-0.5,2.5-1.7,3.2
		C983,165.3,981.9,165.6,980.8,166z"/>
	<path class="st10" d="M984.2,164.9c0.5-1,2.7-1,1.6-2.9c-0.2-0.2-0.3-0.4-0.2-0.6c0.1-0.2,0.2-0.2,0.3-0.2c2.4,0.4,4.8,0.8,7.7,1.3
		C990.4,164.4,987.2,164.3,984.2,164.9z"/>
	<path class="st4" d="M985.9,161.2c0,0.3-0.1,0.5-0.1,0.8c-2.9,1.1-6.2,0.9-8.7,3H977c-1.4,0.9-2.3,0.3-3-1c-0.3,0-0.6,0-1,0
		c3.8-1.1,7.6-2.1,11.3-3.2C984.9,160.9,985.4,161.1,985.9,161.2z"/>
	<path class="st11" d="M961,167c-4.6,1.9-9.2,1.2-13.9,0.2c-2.4-0.5-1.8-1.8-1.1-3.3c3,0.7,6,1.5,9,2.2
		C956.9,167.2,959.2,165.8,961,167z"/>
	<path class="st12" d="M961,167c-2-0.3-4.2,0.8-5.9-0.9c0.6-0.1,1.2-0.1,1.8-0.2c1.7,0.1,3.4,0.2,5.1,0.5c0.6,0.1,0.4,0.8-0.1,0.4
		C961.8,166.6,961.3,166.9,961,167z"/>
	<path class="st7" d="M974,164c1,0.3,2,0.7,3,1c-3.2,2.6-7.1,2.9-11,3C968.3,165.9,972.3,167.3,974,164z"/>
</g>
<g>
	<path class="st13" d="M806.6,155.1c-25.1,2.4-50.1,1.1-74.8-6.1c-9.5-2.8-18.8-6.7-27.4-12.6c-1.7-1.2-3.6-2.1-4.8-4.2
		c0.2-2.8,1.8-1.9,2.9-1.6c10.1,2.9,20.4,1.7,30.6,1.9c4.8,0.5,9.9,1.2,14.5,0.6c4.7-0.6,9.5-0.1,14.3-1.6c2.9-0.9,6.1-0.9,9.2-1.4
		c7.9-1.3,16-1.3,23.7-4.2c3.2-1.2,5.5-4.5,9.3-4.8c11-1.1,22-2.5,33-4.4c1.7-0.3,3.4-0.4,5.2-1.3c-0.3-1.5-1.7-1.5-2.2-2.6
		c-0.3-0.4-0.4-0.9-0.5-1.5c0.9-3.6,3.3-3.3,5.5-3.6c17.4-2.3,34.7-5.5,52.1-9c20.5-4.1,40.7-9.2,60.8-15.6
		c14.2-4.5,28.2-10,41.3-18.4c0.7-0.2,1.3,0.2,1.8,0.8c0.2,0.4,0.5,0.9,0.6,1.4c0.2,1.3,0.2,2.6-0.2,3.9
		c-2.4,6.4-6.9,10.3-11.2,14.5c-1.2,1.1-2.3,2.3-3.3,3.5c-5.7,4.2-12,6.9-17.5,11.5c-7.5,3.4-15.1,6.5-22.4,10.9
		c-6.9,3-14,5.3-20,6.8c7.8-1.2,16.6-4.2,25.7-4.3c5.8-0.1,11.4-2.6,17-4.1c16.6-4.4,33.3-8.8,48.8-18.2c2.3-1.4,4.4-3,6.5-4.8
		c0.6-0.4,1.1-0.7,1.7-0.9c0.4-0.1,0.8,0,1.1,0.4c1.5,8.4-1.8,15.1-5.9,20.5c-11.2,14.7-25.8,22.3-40.8,28.4
		c-30.9,12.6-62.8,17.5-95.2,18.1c-1.2-0.4-1.9-1.9-3.2-2.2c-0.6-0.3-1.3-0.5-2-0.7c-1-0.3-2.1-0.8-3-1.3c-1.2-0.6-2.5-0.6-3.7-0.6
		c-0.8,0-1.5,0-2.3,0c-0.6,0-1.2,0-1.7,0c-0.8,0-1.6,0-2.5,0c-1,0.1-2.1,0-3.2,0c-1.1,0.1-2.2,0-3.3,0c-1.6,0.1-3.2,0-4.8,0
		c-6.2,0.5-12.4-0.8-18.5,0.6c-3.8,1.1-7.8-0.3-11.7,1c-1,0.3-2.1,0.3-3.3,0.3c-1.6,0-3.2-0.2-4.7,0.3c-0.3,0.2-0.7,0.3-1.1,0.4
		c-1,0.3-2.1,0.8-3.2,1c-1.4,0.3-2.6,1.2-3.9,1.8C808.9,154.3,807.9,155.1,806.6,155.1z"/>
	<path class="st14" d="M763.7,29c15.9-6.3,31.9-11.6,48.4-14c1.6,3-0.4,4.6-1.7,6.3c-1.5,2.1-1,2.9,1,3.6c2.4,0.9,5.4,0.5,6.7,4.3
		c-0.1,1.1-0.6,1.9-1.3,2.5c-1.6,1.1-3.3,0.8-5,0.8c-9-0.1-18.2-1.8-26.7,3.9c-2.4,1.6-4.3,3.8-6.6,5.4c-1.6,0.7-3.3,1.6-5,0.6
		c-1.3-1.3-1-3-0.4-4.5c1.5-3.6,0.1-4.6-2.5-5C768.1,32.6,765.6,31.4,763.7,29z"/>
	<path class="st15" d="M806.6,155.1c0.8-1.4,1.9-1.9,3.2-2.1c2.5,1.8,2.8,5.2,3.3,8.2c3.3,20.9,6.9,41.8,10.1,62.7
		c2.6,17.2,5.5,34.3,8.1,51.4c0.5,3,1.2,5.5,3.8,6.2c1.4,0.4,2.9,0.9,4.3,1.3c0.8,0.4,1.7,0.7,1.4,2.2c-4.5-0.1-8.7-1.4-12.7-4
		c-1.2-1.1-1.3-2.7-1.6-4.3c-2.9-17.6-5.4-35.3-8.2-52.9c-0.2-0.9-1-2.5-2.2-9.4c-0.6-3.5-0.2-7.4-2.5-10.3
		c-3.6-3.6-8.1-4.3-12.2-6.1c-9.8-4.4-19.7-8.9-29.7-13.1c-1.7-0.7-3.6-1.1-4.4-3.8c0.1-1.5,0.6-2.3,1.8-2.5
		c3.8,3.5,8.4,4.7,12.7,6.6c9.9,4.4,19.8,8.9,29.8,13c0.6,0.2,1.2,0.7,2.3,0.1c-2.6-1.2-2.7-3.1-1.1-5.4c-1.8-11-3.6-22.1-5.4-33.1
		C807.3,158.3,806.9,156.7,806.6,155.1z"/>
	<path class="st16" d="M1027.9,86c-0.3,0-0.6,0-0.9,0c-0.6-0.7-0.3-1.7-0.5-2.6c-0.2-0.6-0.4,0.1-0.3,0.1c0.8,1.1,0.4,2.3,0,3.5
		c-7.8,7.7-17.3,11.1-26.5,14.9c-14.4,5.8-29.3,9.6-44.1,12.6c-9.1,1.8-18.4,3-27.6,4.4c-1.6,0.3-3.2,1.6-5.7,0.5
		c8.4-4.6,16.8-6,24.7-9.4c9.1-1.6,18.1-4.2,27-6.7c11.7-3.3,23.3-6.9,34.6-12.1c6.1-2.8,12.1-5.7,16.4-12.2c1.7-0.8,2.8,0.4,3.7,2
		C1027.6,82.5,1028.1,84.3,1027.9,86z"/>
	<path class="st17" d="M733.7,134c-11-0.4-22.1,1.4-32.9-2.6c-0.6-0.2-1,0.3-1.3,0.9c-1.3-0.5-2.4-1.6-3.2-2.9
		c-0.1-2.1,1-1.8,2.1-1.6c11.7,2.1,23.5,2,35.3,1.3c9.8-0.5,19.7-0.7,29.5-2.5c7.1-1.3,14.3-2.1,21.5-3.3c2.1-0.4,4.7-0.2,5.5-3.7
		c1.3-3.3,4-3.3,6.2-3.5c10.8-1.1,21.5-2.7,32.2-4.3c3.3-0.5,6.5-1.5,9.8-1.4c0.8,0.2,1.2,0.9,1.5,1.7c-0.2,4-2.9,3.9-5,4.2
		c-12.1,1.8-24,3.7-36.1,5.2c-1.4,0.2-3.3-0.6-2.6,3c0.3,1.5-1.3,1.7-2.3,2c-4.8,1.5-9.8,2.3-14.7,2.9c-5.7,0.7-11.3,1.7-17,2.3
		c-8.3,0.9-16.6,2.1-25.1,1.8C736,133.5,734.8,133.1,733.7,134z"/>
	<path class="st18" d="M880.6,8.9c4.4-0.4,8.8-0.5,13.2,0.2c0.5,0.4,1.1,0.7,1.2,1.5c0.1,2.6-1.4,3.7-3,4.6c-2.6,1.5-5.2,3-7.8,4.5
		c-0.6,0.2-1.2,0.2-1.8,0.1c-8.9-3.5-16.4,0.9-23.9,6.1c-5.6,2.5-10.9,5.7-15.9,9.9c-1.3,1.2-2.5,3.1-4.5,2.3
		c-0.5-4.1,2.1-6.9,2.7-10.6c6.3-6.8,13.2-12,21.6-12.7c2.2-0.2,4.5,0.4,6.7-0.2c2-0.5,4.8-1.1,1.7-4.8c-0.5-0.6,0.2-1,0.7-1.2
		C874.6,8.7,877.7,8.1,880.6,8.9z"/>
	<path class="st19" d="M688.4,116.3c-1.9-5.5-2.8-11.3-4-17c-0.3-2.4-0.9-4.9,0.5-7.1c2.8-0.8,5.2,0.4,7.7,1.9
		c0.2,0.4,0.3,0.9,0.2,1.4c-0.6,2-2.5,2.8-2.9,4.9c-0.4,1.1-0.6,2.3-0.6,3.5c1,2.8,3.3,2.5,5,2.6c13.2,0.5,26.3-0.3,39.4-1.3
		c8.7-0.7,17.4-1.9,25.9-4.5c2.5-0.1,4.5,0.8,5.5,4.1c-0.6,3-2.8,3-4.4,3.2c-12.1,1.5-24,3.9-36.2,4.7c-8,0.5-16.1,0.9-24.1,0.8
		c-2.6,0-5.2,0.2-7.8-0.8c-1-0.4-2.1-0.5-2.8,1C689.3,114.6,689.1,115.7,688.4,116.3z"/>
	<path class="st20" d="M694,127.1c-1.4-1.2-2.5-2.9-3.2-4.9c-0.6-4.5,2.1-3.3,3.8-3.1c7.1,0.9,14.1,1.8,21.2,1.4
		c19.8-1.2,39.6-3.6,59.2-7.3c1.3-0.2,2.5-0.8,3.8-1.3c1.3-0.5,2.4-0.2,3.5,0.8c0.8,0.9,1.2,2,1,3.3c-1,3-3.3,2.9-5.4,3.3
		c-15.7,3.3-31.6,4.9-47.4,6.8c-9,1.1-18.2,0.2-27.3,0.3c-2.9,0.4-5.6-2.4-8.6-0.8C694.5,126.2,694.4,126.7,694,127.1z"/>
	<path class="st21" d="M779.7,112c-3.2,4.7-7.8,3.1-11.8,3.8c-11.5,2.2-23.1,4-34.7,5c-12.9,1.1-26,2.7-38.9-0.6
		c-1.4-0.4-3-0.8-3.3,1.9c-0.9-0.6-1.6-1.5-1.6-2.9c-0.9-3.3,0.2-4.4,2.7-3.8c15.7,4.1,31.2,0.4,46.9-0.7
		c11.7-0.8,23.3-3.3,34.9-5.7c0.4-0.3,0.8-0.5,1.2-0.6c1.9,0,3.6,0.7,4.7,2.8C779.6,111.5,779.6,111.8,779.7,112z"/>
	<path class="st22" d="M694,127.1c0-0.7,0-1.4,0-2.1c7.1,1.2,14.1,1.8,21.2,1.8c6.7,0.1,13.4-0.1,20.1-0.6
		c7.8-0.6,15.7-1.8,23.5-2.7c9.4-1.1,18.8-2.8,28.1-5c1.5-0.6,2.8-0.2,3.8,1.4c1.2,2.4,0,3.5-1.6,3.8c-5.9,1.1-11.8,2.3-17.8,2.5
		c-3.3,0.1-6.4,1.4-9.6,2c-7.3,1.4-14.6,2.2-21.8,2.4c-13,0.4-26.2,1.2-39.2-0.5c-1.5-0.2-2.7-3.6-4.4-0.9
		C695.3,128.9,694.5,128.3,694,127.1z"/>
	<path class="st23" d="M837.5,10.9c9.2-1.4,18.5-2.1,27.7-2c-0.1,2.6-1.7,2.1-2.9,2.2c-2,0.3-4,0.1-5.9,0.1c-0.7,0-2-0.2-1.9,1
		c0.2,4.2-2.3,3.7-4.3,4c-2.6,0.4-5.1,1.5-7.5,2.7c-5.3,2.6-8.5,7-8.3,14.5c-0.3,1.6-1,2.8-2.1,3.6c-2.5,0.5-3.6-2.4-5.6-3.3
		c-0.6-0.5-1.3-1.2-1.7-2.1c-0.4-1-0.7-2.1-1.1-3.2c-1.7-5-1-7.5,2.5-10.4c2.1-1.7,4.4-2.9,6.7-3.9
		C834.8,13.6,836.4,12.5,837.5,10.9z"/>
	<path class="st24" d="M833.6,34c-1.6-12.2,7.7-17.1,17-19c1.1-0.2,2.5,0.8,3.2-1c0.5-1.5-1.5-1.7-1.3-3.5c4.2-1.6,8.8,1,12.9-1.5
		c1,0,1.9-0.1,2.9-0.1c1-0.4,1.8-0.8,2.7,0.3c0.9,1.8,4-0.4,3.6,2.4c-0.4,2.3-2.6,4-4.8,4.3c-1.8,0.3-3.6,0.2-5.5,0.1
		c-9-0.4-15.9,5.8-22.6,12c-1.5,1.9-3.3,3.4-4.8,5.1C835.9,34.1,834.8,35.3,833.6,34z"/>
	<path class="st25" d="M774.9,109c-0.1,1.4-0.8,1.8-1.9,2c-9,1.6-18.1,3.7-27.2,4.8c-6.9,0.8-13.9,1.8-20.8,2
		c-5.6,0.2-11.3,1.3-16.9,1.3c-5.5-0.1-11-0.7-16.4-2.3c-2.2-0.7-2.5,0.3-2.5,2.5c-0.7-0.8-0.9-1.9-0.8-3c0-1.1,0.1-2.2,0.1-3.3
		c2.9-1.6,5.8,0.1,8.5,0.7c8.2,1.5,16.3,0.3,24.4-0.4c14.7-1.2,29.3-2.8,43.9-5.6c1.3-0.2,2.6-0.4,3.8-1c0.4-0.2,0.9-0.3,1.3-0.4
		C772.2,106.4,774,106.6,774.9,109z"/>
	<path class="st26" d="M837.5,10.9c-0.2,2.3-1.3,3.4-2.9,4.1c-1.8,0.8-3.7,1.7-5.5,2.8c-5.5,3.4-5.8,4.4-3.7,11.7
		c0.2,0.8,0.2,1.6,0.2,2.5c-3,0.6-5.5-0.8-7.9-3c-1.8-1.8-4-2.2-6.1-2.9c-1.3-0.4-3.3,0-3.7-1.9c-0.5-2,1.4-2.9,2.3-4.1
		c1.1-1.5,2.2-2.8,2-5.1c0.2-0.2,0.3-0.2,0.5-0.1c1.3-0.9,3,0.3,4.3-0.9C823.7,12,830.6,11.4,837.5,10.9z"/>
	<path class="st27" d="M1028.6,81c-1.3,0.1-2.1-1.4-3.2-2c-1.6-0.3-2.9-1.8-4.4-1.9c-1.8-0.5-3.5-1.5-5.4-1.8
		c-1.2-0.2-2.3-0.7-3.3-1.6c-2.5-2.8-0.8-4.6,1.2-5.2c4.4-1.3,8.2-4.2,12.3-6.2c2.8-1.3,5.2-3,6-7c0.2-0.8,0.6-1.4,1.4-1.2
		c2.9,8.3,1.1,15.9-2.3,23.2C1030.3,78.7,1030,80.3,1028.6,81z"/>
	<path class="st28" d="M812.9,193c-0.1,1.8-0.1,3.3,1.7,4c0.8,0.3,1.6,2.1,1,3.3s-1.7,0.2-2.5-0.2c-13.9-6-27.7-12.1-41.6-18.1
		c-1.3-0.6-2.1-1.3-2.1-3.1c2.1-3,4.3-3,8.6,0c10.7,5.8,22,9.7,32.9,14.8C811.6,194.1,812.4,194.1,812.9,193z"/>
	<path class="st29" d="M724,50.9c4.4-4,9.4-6.4,14.2-9.1c3.6,0.8,7.3-0.3,10.9-0.4c7.8-0.2,14.7,2.5,21.1,8c0.6,0.8,1.3,1.7,0.5,2.9
		c-3.8,1.4-7.4-1.7-11.1-1.1c-6.4-1.6-13-0.2-19.5-1.6c-2.1-0.5-4,1.4-5.9,2C730.8,51,727.4,51.4,724,50.9z"/>
	<path class="st30" d="M884.3,19c2-2.8,4.9-3.4,7.4-4.9c1.5-0.9,2.7-1.8,2.9-4.1c2.5-0.9,4.9-0.6,7.4-0.1c5.3-0.1,10.6,0.3,15.9,2
		c-4.7,2.2-9.3,4.8-13.2,8.9c-4.5,0.9-9.3,0.5-13.7,2.5C889,21.4,885.7,22.6,884.3,19z"/>
	<path class="st31" d="M763.7,29c3.3,0.7,6.1,3.4,9.7,3.4c1.5,0,2.3,1.9,1.3,4.1c-0.8,1.7-1.6,3.4-1.4,5.6c1,2.1,0.8,4.2,0,6.3
		c-0.6,0.4-1.1,0.4-1.7,0.2c-0.3-0.2-0.8-0.4-1-0.8c-3.9-8.4-10.4-8.8-17-9.1c-2.1-0.1-4.1-0.5-5.7-2.6
		C753,32.9,758.3,30.9,763.7,29z"/>
	<path class="st32" d="M748,36c4.7,1.3,9.4,1.9,14.2,2.1c5.2,0.2,6.7,6,9.6,9.9c0.3,1.7-0.7,1.8-1.6,2c-4.5-1.3-8.1-5.7-12.9-6.4
		c-4.7-0.6-9.4-1.6-14,0c-2.2,0.7-3.5-0.6-5-1.7C741.3,39.5,744.5,37.3,748,36z"/>
	<path class="st33" d="M1000.9,66c-0.2-0.3-0.6-0.7-0.8-1c-0.8-0.8-1.3-1.8-1.5-3c-0.1-0.5-0.1-1-0.1-1.5c0.1-0.8,0.3-1.4,0.8-2
		c4.8-3.1,10.1-4.1,15.1-6.8c4.1-2.3,8.1-4.7,11.2-8.8c1.6,1.3,2.9,3,3.8,5.1c0,0.3,0,0.5,0,0.8c0,2.8-1.6,4-3.2,5.2
		C1018.3,59.8,1009.5,62.6,1000.9,66z"/>
	<path class="st34" d="M1015.9,35c2.1,0.9,4,2.1,5.7,3.9c0.4,3.7-1.5,5.7-3.6,6.9c-6.4,3.8-12.8,7.4-19.9,9
		c-0.8-0.1-1.5-0.5-2.1-1.1c-0.8-0.8-1.4-1.6-2.1-2.6c-0.4-0.9-0.8-1.8,0-2.7c3-2,6.3-3,9.6-4.2C1008.3,42.5,1012.3,39.2,1015.9,35z
		"/>
	<path class="st35" d="M923.2,222.8c-5.9,0.1-11.9,0.3-17.8,0.1c-3.2-0.1-3.8,0.8-2.9,4.8c4.3,17.9,8.4,36,12.4,54
		c0.3,1.4,2.4,4-0.5,5.3c-2.7-2.2-3.2-6-3.9-9.5c-3.8-19.5-8.8-38.6-12.8-58c-0.4-1.9-1-3.8-0.7-5.9c0.3-1.1,0.6-2.3,1.8-1.8
		c1.7,3.1,0.6,8.4,3.6,9.9c2.6,1.3,5.9,0.4,9,0.5C915.3,222.5,919.3,222.6,923.2,222.8z"/>
	<path class="st36" d="M997.7,54c6.6-2,12.8-5.4,19.1-8.6c2.4-1.2,3.8-3.6,4.8-6.5c1.9,0.5,2.9,2.2,3.9,4c-0.4,2.2-1.1,3.9-2.9,5.1
		c-7.4,5-15.2,8.6-23.4,11c-0.6,0.4-1-0.1-1.4-0.6c-0.6-1-0.9-2-0.8-3.3C997.2,54.7,997.4,54.3,997.7,54z"/>
	<path class="st37" d="M1015.9,35c-1.7,5.3-5.4,7.2-9.2,9c-4.3,2-8.5,4-13,5c-0.6-0.1-1-0.4-1.5-0.8c-0.9-1.5-3.4-1.8-2.1-4.8
		c3.6-1.9,7.5-3.3,11-5.2c2.5-1.3,5.2-2.5,6.9-5.5c0.8-1.4,1.9-1.7,3.1-0.7C1013,32.4,1014.5,33.5,1015.9,35z"/>
	<path class="st38" d="M978.8,20.9c4.1,0.5,8.2,1,12.1,2.9c-3.9,6-9.6,8.3-15.1,11c-0.6,0.1-1.2,0.1-1.7-0.1c-1.3-0.5-2.5-1.4-3.8-2
		c-1.3-0.7-2.9-0.8-3.3-3c-0.1-1.1,0.2-2,1-2.6c2.5-1.9,5.4-3.4,7.5-6.2C976.2,20,977.7,20.3,978.8,20.9z"/>
	<path class="st39" d="M1033.3,54c-1.3,9.5-8.6,9.1-13.3,13c-1.8,1.6-4.2,1.8-6.3,2.5c-1.4,0.5-2.9,1.3-1,3.5
		c-4.2,1.7-8.2,0.8-11.9-2c0-1.3,0-2.7,0-4c7.2,0.6,13.2-4.4,19.7-6.9c4-1.6,7.6-4.2,10.4-8.4c0.4-0.2,0.8-0.1,1.1,0.2
		C1032.7,52.4,1033.4,52.8,1033.3,54z"/>
	<path class="st40" d="M1011.2,32c-2.5-0.8-2.1,2.8-3.6,3.7c-5.6,3.8-11.5,6.8-17.8,8.3c-0.3,0.3-0.6,0.5-1,0.4
		c-1.6-0.7-2.9-1.9-4.4-3c-0.4-0.6-0.6-1.3,0-1.9c4.9-2.6,10.1-4.3,14.9-7.6c1.6-1.1,2.5-4.2,5-3C1006.7,29.5,1009,30.4,1011.2,32z"
		/>
	<path class="st41" d="M777.9,179c-2.9,0.8-5.7-2.6-8.6,0c-0.8,0.3-1.3,1-1.6,2c-0.5,1.2-0.9,2.7-2.4,2c-6.4,1.3-12.8,2.5-19.1-0.8
		c0.2-3,2.1-2.5,3.6-2.5c6,0.3,11.7-1.1,17.2-4.4c2.1-1.3,4.4-0.7,6.7-1c4.4-0.5,8.2-3.2,12.4-4.4c2.5,2.5,1,4.3-0.7,5.8
		C783.2,177.7,780.5,178.2,777.9,179z"/>
	<path class="st42" d="M978.8,20.9c-1,0.3-2.5-0.5-3.2,1.1c-1.3,2.9-3.5,4.1-5.8,5.1c-1.1,0.4-2.2,1-2.3,2.8
		c-1.4,1.4-2.8,0.2-4.1-0.1c-2.5-1.5-6-0.5-7.1-5c2.9-3.8,5.9-7.9,10.8-6C971,19,975,19.5,978.8,20.9z"/>
	<path class="st43" d="M743.1,180.2c-2.9-2.7-1.7-4.6,0.8-6.3c3-0.3,5.8,2.4,8.9,1.5c0.3-0.1,0.7-0.2,1-0.3c2.5-0.1,3.5-2.2,3.6-5.1
		c1.3-0.4,2.5-0.8,3.7-1.2c3.1-0.3,6,1.3,9.1,0.9c2.1-0.1,4.6,0.7,3.9-3.8c2.4,0.4,4.8,0.8,7.1,1.2c1,2.4-0.4,3.5-1.7,4.1
		c-3.3,1.4-6.5,3.3-9.9,3.1c-3.6-0.2-6.7,1.3-9.4,4.1C754.6,181.2,748.8,179.5,743.1,180.2z"/>
	<path class="st38" d="M685.3,92c-1.2,2.3-0.6,4.8-0.9,7.3c-1.7-6.3-0.1-11.5,3.1-16.3c0.9-1.2,1.6-2.5,3.3-2.1
		c5.1,1.3,10.1,0.9,15.2,0c1.8-0.3,3.7-0.4,4.8,2.2c0.2,1.5-0.9,1.9-1.7,2.2c-3.1,1.2-5.8,3.5-8.6,5.3c-0.8,0.3-1.6,0.3-2.4,0.1
		c-3.3-2.3-6.9-0.1-10.3-1.5C686.5,88.8,686.3,91.2,685.3,92z"/>
	<path class="st44" d="M975.5,34c5.3-2.9,10.5-6,15.4-10.2c1.9,0.2,3.8,0.8,5.5,2c0,3.9-2.1,5.8-4.5,7.2c-3.4,1.9-7,3.6-10.4,5.6
		c-1,0.2-2-0.3-2.9-0.8C977.4,36.7,975.5,36.6,975.5,34z"/>
	<path class="st45" d="M693.1,74.9c1.3-2,3-3.6,4.8-5c3,0,5.9,0.9,9,0.7c2.3-0.1,4.4-0.3,6.3-1.9c2,1.2,1.5,3.3,1.2,5.3
		c-1,3.5-3.3,5.1-6,5.2c-3.8,0.2-7.6,0.2-11.3,0.1C694.9,79.3,692.8,78.8,693.1,74.9z"/>
	<path class="st46" d="M981,38c2.2-2.4,5-3.5,7.7-4.7c3.3-1.4,6-3.4,7.6-7.5c2.5,1.9,5.7,0.5,8,3c-4.2,4.6-9.2,7.3-14.4,9.5
		c-1.9,0.8-3.6,1.9-5.7,1.6c-0.2,0.3-0.6,0.5-1,0.4c-0.9-0.2-1.7-0.5-2.4-1.3C980.7,38.7,980.8,38.4,981,38z"/>
	<path class="st47" d="M765.4,183c0.8-0.7,1.6-1.4,2.4-2c5.6,4.9,12.4,6.1,18.6,9.2c8.7,4.3,17.6,7.8,26.4,11.7
		c0.9,0.4,3,0.3,0.7,2.3c-10.5-3.6-20.5-8.7-30.7-13.1C777,188.5,771.2,185.7,765.4,183z"/>
	<path class="st48" d="M898.8,211.9c-0.7,0.4-1,1.2-1,2.1c-1.3,0.2-1.5-1.1-1.7-2.2c-4.6-19.5-8.8-39-13.4-58.5
		c-0.2-1.1-0.5-2.3,0.1-3.4c1.8-0.3,2.6,1.3,3.2,3.1C890.2,172.6,894.5,192.3,898.8,211.9z"/>
	<path class="st20" d="M743.1,180.2c1.5-2.1,3.5-1,5.2-1.1c3.9-0.3,7.9,0.7,11.5-2c4.4-3.7,9.4-3.2,14.3-4.4c3.3-0.8,6.3-1.9,9-4.7
		c1.3,0.2,2.3,0.7,3,2.1c-4,4.6-9,5.2-14,5.9c-2.6,0.4-5.1,0.9-7.5,2.2c-4.3,2.4-8.8,3.3-13.5,3c-1.6-0.1-3.5-0.9-4.8,1.1
		C745,182.1,743.9,181.5,743.1,180.2z"/>
	<path class="st49" d="M713.1,69c-0.1,1.1,0.1,2.8-1.1,2.8c-4.7-0.3-9.7,2-14-1.8c2.1-2.9,4.9-4.7,7.8-6c2.7-0.6,5.4,1.2,8.1-0.1
		c0.5,0.5,0.6,1.2,0.6,2C714.4,67.2,713.9,68.2,713.1,69z"/>
	<path class="st50" d="M967.1,18.9c-4.8-1.4-6.7,5-10.6,6.1c-3.3,0.2-5.1-4.2-8.2-4.3c-2.1-1-4.3-2.3-6.7-2.7
		c-0.9-0.1-1.9-0.4-1.7-2C948.9,16.4,958,16.6,967.1,18.9z"/>
	<path class="st42" d="M904.9,20c3.3-5.1,7.5-8.1,12.9-8.1c1.9,0,3.8-0.1,5.6,1c-1.8,3.3-4.3,5.8-6.9,8c-1.2,0.5-2.5,0.5-3.7,0.6
		c-1.1-0.1-2.2,0.1-3.3,0C907.9,21.3,906.2,21.7,904.9,20z"/>
	<path class="st51" d="M934.4,14.9c1.4,0,2.9-0.1,4.1,0.9c-1.6,1.9-3,4.1-4.7,6c-2.1,1-4.4,0.6-6.6,0.7c-1.5-0.2-3.2,0.1-4.3-1.7
		c-0.3-3.6,2.1-5,3.6-7.1c1-0.1,2.1-0.3,3.2,0.3c0.2-0.2,0.4-0.1,0.6,0.1C931.6,15.2,933.2,13.9,934.4,14.9z"/>
	<path class="st42" d="M710.7,84c-1-2.6-2.9-2.2-4.4-1.9c-5.5,1-11,1.9-16.6-0.3c-0.6-0.2-1.3,0.7-2.1,1.1c0.4-1.7,1.2-3,2.2-4.1
		c0.2-0.1,0.5-0.5,0.7-0.4c7.4,2,14.8-0.4,22.1,0.8c0.7,0.5,1,1.2,1,2.2C713.3,83.6,712.4,84.5,710.7,84z"/>
	<path class="st52" d="M724,50.9c3.3-2,6.4-1.8,9.7,0.1c0,2.5-2.2,2.5-3,4.2c-3.6,4.3-7.6,3.9-11.7,1.4c-0.2-0.2-0.2-0.4-0.4-0.7
		C720.1,53.8,722,52.2,724,50.9z"/>
	<path class="st53" d="M934.3,21c0.3-3.1,1.5-5.2,4.3-5.2c0.4,0.1,0.9,0.2,1.3,0.2c2.9,1.5,6.3,0.9,8.7,4c-0.7,1.6-1.7,2.8-2.9,3.7
		c-3.6,0.4-7.1-0.4-10.5-1.7C934.8,21.8,934.5,21.4,934.3,21z"/>
	<path class="st42" d="M713.1,80c-5.2,0.3-10.3-0.8-15.3,1c-2.9,1-5.2-2-7.9-2.1c0.6-2.1,1.8-3.1,3.3-4c0.6,2.2,1.6,3.3,3.6,3.2
		c3.4-0.2,6.7-0.2,10.1,0c3,0.2,5.3-0.8,7-4c0.2,0.2,0.2,0.4,0.4,0.6C714.7,76.7,714.3,78.5,713.1,80z"/>
	<path class="st54" d="M757.5,170c1.6,4,0.6,5.6-4,6c-0.3-0.7-0.6-1.8-1.2-1.5c-0.5,0.1,0.2,0.4,0.4,0.6c0.3,0.3,0.6,0.6,0.9,0.9
		c-3.6,2-6.6,0-9.6-2.1C748.1,170.9,752.7,169.9,757.5,170z"/>
	<path class="st55" d="M926.3,14c0.5,3.3-2.6,3.5-3.2,6c-2.1,2-4.2,1.9-6.3,0c1.8-2.9,3.7-5.8,6.6-7.2c0.2-0.2,0.4-0.2,0.5,0.1
		C924.5,14,925.7,13,926.3,14z"/>
	<path class="st56" d="M783.1,167.8c-0.6,1.9-1.5,3-3.2,3.6c-3.6,1.3-7.3,2.9-11.2,2.4c-3.4-0.5-5.5,4.1-8.9,3.1
		c2.7-3,5.6-4.4,9.4-4.1c3.7,0.3,7.1-2.1,10.7-3.2c1-0.3,1.3-1.5,1.4-2.7C782,166.9,782.6,167.1,783.1,167.8z"/>
	<path class="st23" d="M713.9,64c-2.7,3.6-5.4,1.3-8.1-0.1c3.1-2.4,6.3-4.4,9.7-5.9c0.2,0.4,0.3,0.8,0.3,1.3
		C715.3,60.9,715,62.7,713.9,64z"/>
	<path class="st57" d="M770.9,171c-3.4,0.2-6.7,0-9.8-2.2c2.5-2.2,5.2-2.9,8.2-2.8c0.9,1,2.1,0,2.9,0.7c1.3,1.1,2.3,2.4,0.2,3.8
		c-0.4,0-0.7-0.2-1-0.5c-0.4-0.4,0.2-0.2-0.2-0.3c-0.6-0.1,0.1,0.3,0,0.4C771.3,170.5,771.2,170.8,770.9,171z"/>
	<path class="st58" d="M770.9,171c0-0.3,0-0.7,0-1c0.2-0.4,0.6-0.4,0.8,0c2-0.5,1.6-1.6,0.3-2.7c-0.8-0.7-2.1,0-2.7-1.3
		c1.6-0.3,3.2-1.1,4.8-0.1c0.2,1.4,2.5,1,2,2.5C775.1,171,773,171.1,770.9,171z"/>
	<path class="st59" d="M870.8,9.2c-0.9-0.1-1.7-0.2-2.7-0.3c4.1-0.9,8.3-0.8,12.4,0C877.3,9,874.1,9.1,870.8,9.2z"/>
	<path class="st24" d="M902,9.9c-2.5,0-4.9,0.1-7.4,0.1c-0.2-0.3-0.6-0.6-0.8-0.9C896.6,9,899.4,8.8,902,9.9z"/>
	<path class="st42" d="M926.3,14c-0.9-0.1-1.8,0.1-2.4-1.1c2,0,3.9-0.2,5.8,1C928.6,14,927.4,14,926.3,14z"/>
	<path class="st52" d="M715.5,59c0-0.3,0-0.7,0-1c1-0.7,2.1-1.4,3.1-2.1l0.1,0.2C718.5,58.7,717.3,59.4,715.5,59z"/>
	<path class="st33" d="M1032.1,51.8c-0.4,0.1-0.7,0.1-1.1,0.2c-1.4-0.6-2.2-1.7-1.7-3.7l0.1-0.3C1030.6,49,1031.5,50.3,1032.1,51.8z
		"/>
	<path class="st55" d="M934.4,14.9c-1.4-0.1-2.9,0.7-4.1-0.9C931.7,14,933.2,14,934.4,14.9z"/>
	<path class="st14" d="M816.9,14c-1.3,1.7-2.9,0.8-4.3,0.9C814,13.8,815.4,13.9,816.9,14z"/>
	<path class="st60" d="M840.7,285.1c-0.3-0.9-0.9-1.1-1.6-1.1c-1.4-1.7-1.7-4.1-2.1-6.3c-6.8-38.9-13.2-77.9-19.7-116.9
		c-0.3-2.1-0.8-4.2-1.2-6.3c-0.3-1.6-0.9-3.3,0.7-4.4c0.2-0.1,0.5-0.1,0.8-0.1c1.3-0.9,2.6-0.4,3.9-0.3c2.3,1.1,2.9,3.8,3.3,6.4
		c7.1,38.1,14.7,76,21.6,114.2c0.1,0.6,0.2,1.3,0.3,1.9c1.1,6.1,1.5,13,8.2,14.1c0,0.3-0.1,0.5-0.1,0.8
		C850.1,287.1,845.3,286.9,840.7,285.1z"/>
	<path class="st61" d="M875.5,289.1c-3.7-0.3-7.5,0.7-11.2-1c0.5-0.8,1-1.1,1.7-1.3c2-0.4,4,0,6-0.2c5.5,0,5.5-0.1,4.3-6.6
		c-4.5-25.3-9.4-50.5-13.8-75.8c-0.3-1.9-0.8-3.4-2.4-4.1c-0.8-0.3-2-0.8-1-2.4c2.4-1.6,4.8-1,7.4-0.8c1.3,0.3,2.2,1.1,2.3,2.9
		c0.5,8.1,2.9,15.6,4.3,23.3c3.6,19.5,7.5,38.8,11.2,58.3c0.5,2.7,2.8,5,1.2,8.2C882.1,289.3,878.8,290,875.5,289.1z"/>
	<path class="st62" d="M874,147.1c1.3,0.1,2.9-0.6,4,0.9c2.3,6.6,3.3,13.6,4.9,20.4c6.3,27.3,12.1,54.7,18.3,82
		c2.8,12.3,5.6,24.6,7.9,37c-0.4,1.8-2,0.4-2.6,1.6c-0.2,0-0.6,0-0.8,0c-1.7-1.7-2.3-4-2.8-6.4c-7.4-36.4-16.3-72.3-23.8-108.6
		c-1.6-7.6-3.6-14.9-5-22.5C873.9,150,873.5,148.6,874,147.1z"/>
	<path class="st63" d="M874,147.1c4,14.9,6.7,30.2,10.2,45.2c3.9,17,7.8,33.9,11.6,50.9c2.7,12.2,5.1,24.6,7.7,36.8
		c0.6,3,1.5,6,2.2,9c-9.6,1.9-19.2,0.7-28.8,0.8c-0.5,0-1-0.5-1.4-0.8c3.5,0,6.9-0.1,10.4-0.1c1.3-1.6,2.9-1.2,4.4-1.3
		c1.3-0.1,2.5,0.1,3.9,0c0.6,0,1.3,0,1.8,0c0.6,0,1.2,0,1.8,0c0.8,0,1.6,0,2.3-0.2c1.8-1.4,0.6-3.3,0.4-4.9
		c-1.4-10.8-4.2-21.3-6.5-31.8c-6.3-28.1-12.2-56.4-18.6-84.6c-1.4-6.4-2.9-12.7-3.9-19.2C872.4,147,873.2,147,874,147.1z"/>
	<path class="st64" d="M906.5,289c0.6-1.2,1.5-1,2.4-1c1.9-2.6,1-5.7,0.2-8c-2-5.5-2.3-11.6-3.9-17.2c-3.4-12.1-5.6-24.6-8.3-36.9
		c-2.3-10.7-5.1-21.3-7.3-32.1c-2.5-12.1-5.1-24.1-8.2-35.9c-0.7-2.8-1-5.9-0.2-8.8c0.6,0,1.3,0.1,1.6,0.9
		c4.1,16,7.7,32.3,11.2,48.6c1.1,5.2,2.5,10.3,3.9,15.5c2.3,13,5.5,25.7,8.6,38.5c2.7,11.5,4.4,23.4,8.1,34.5
		C912.1,289.1,909.3,289.2,906.5,289z"/>
	<path class="st65" d="M817,222c0.4-0.7,0.7-1.3,1.3-2.3c3.1,19.8,6.1,39.4,9.1,59c0.2,0.8,0.5,1.6,0.7,2.3c-2-0.5-2.1-2.6-2.4-4.6
		c-2.7-17.5-5.4-35.1-8.1-52.6C817.4,223.2,817.2,222.6,817,222z"/>
	<path class="st66" d="M866.1,288c-0.6,0-1.1,0.1-1.7,0.1c-3.2-0.3-6.3,0.6-9.4-1l0.1-0.1C859.2,284.4,863.9,284.9,866.1,288z"/>
	<path class="st67" d="M866.1,288c-3.6-2-7.4-0.4-11.1-1c-8.9,0.4-8.2-8.9-9.4-15.5c-4.4-23.1-8.5-46.4-13.2-69.4
		c-3-15-5.6-30.2-8.4-45.3c-0.5-2.5-1.1-4.7-2.4-6.8c0.2-0.4,0.5-0.7,0.8-0.9c1,0,2.1-0.1,3.2-0.1c3.1-0.3,4.2,2.1,5.1,5.4
		c3.2,12.4,6.4,24.8,11.3,36.4c1.7,3.9,3.5,5.6,6.9,3.6c3.3,0.5,6.9,0.5,9.4,3.9c-0.6,3.3-0.3,6.6,0.2,9.9
		c3.4,23.7,6.7,47.5,9.8,71.3c0.6,3.9,3,5.5,4,8.5C870.3,288,868.2,288,866.1,288z"/>
	<path class="st68" d="M848.6,195.1c-3.7,2.9-4.7,2.5-6.7-2.1c-5.4-11.9-8.6-24.9-12.1-37.8c-0.8-3.1-1.9-5.2-4.2-6.2
		c3.9-1.7,7.8-0.7,11.8-1c1.3-0.8,2.5-0.4,3.9-0.4c8.2-0.1,8.5-0.1,9,10.1c0.3,6.1,1.7,12,2.2,18c0,0.8-0.2,1.6-0.5,2.3
		c-0.2,0.5-0.4,0.9-0.7,1.2c-0.7,0.8-1.7,1.1-2.5,1.5c-1.6,0.8-3.1,2-4.4,3.3c-1.3,1.3-1.2,2.9-0.6,4.6
		C844.7,191.6,847.4,192.5,848.6,195.1z"/>
	<path class="st69" d="M999.3,62c0.2,1,0.6,2,0.8,3c-8.1,6.5-17,10.2-26.1,13.8c-14.3,5.6-28.9,9.8-43.5,13.5
		c-16.6,4.3-33.2,7.7-49.9,10.8c-12.3,2.3-24.7,4.2-37,6c-1.3,0.2-3.3,0.2-3.7,2.9c-0.2-0.3-0.6-0.7-0.8-1c-1-1.3-3.1-0.3-3.6-2.7
		c0.3-2.5,1.9-2.4,3.3-2.6c18.2-3.1,36.2-6,54.3-9.7c26.4-5.4,52.6-12.2,78.3-21.4c8.2-3,16.3-6.6,23.9-11.5
		C996.7,62.4,997.8,61.3,999.3,62z"/>
	<path class="st70" d="M835.2,283c-3-0.5-4.4-2.1-5-6.5c-2.1-15.1-5.4-29.9-7.3-45.1c-3-23.3-7.7-46.2-10.7-69.4
		c-0.4-3.1-1.5-6-2.3-9c1.3-0.8,2.5-1.9,4-1.9c1.4,2.1,2.1,4.5,2.5,7.2c5.1,31,10.1,62,15.1,92.9c1.4,8.8,2.7,17.7,4.1,26.5
		C835.8,279.5,836.3,281.3,835.2,283z"/>
	<path class="st71" d="M881.1,149c0.4,6.5,2.1,12.7,3.8,18.8c1.3,5,1.9,10.2,3.6,15c1.4,4,1.7,8.3,2.6,12.3
		c3.1,14.1,6.7,28,9.5,42.1c1.8,9.6,4.8,18.7,6.6,28.3c1.3,6.8,2.9,13.4,4.4,20.1c0.6,2.4-1.4,2.2-2.7,2.3
		c-2.1-2.9-2.1-6.7-2.9-10.1c-4.8-21.1-9.4-42.3-14-63.4c-4.4-20.4-9-40.7-13.6-61.1c-0.4-1.8-0.5-3.6-0.5-5.4
		C879,148.3,880.1,148.7,881.1,149z"/>
	<path class="st72" d="M871.6,147c0.8,1.1,1.3,2.2,1.7,3.7c5.4,25.2,10.9,50.4,16.4,75.6c3.3,15,6.7,29.9,10,44.9
		c1.1,5.1,1.4,10.4,2.9,15.4c0.8,2.7-1.3,2.1-2.5,2.3c-2.2-2.5-2.6-6.1-3.3-9.5c-6.6-31-13.4-62-20-93c-2.3-10.9-4.6-21.9-7-32.8
		c-0.5-2.2-1.3-4.5,0.2-6.7C870.6,147,871.1,147,871.6,147z"/>
	<path class="st73" d="M835.2,283c-2.4-15.5-4.8-31.1-7.2-46.6c-2.7-16.8-5.7-33.5-8.1-50.4c-1.6-11.7-4-23.3-6.1-34.9
		c1-0.3,2.1-0.7,3.2-1c-0.5,4.2,1.2,8,1.8,11.9c3.9,24.3,8.2,48.4,12.2,72.6c2.8,16.4,5.5,32.9,8.2,49.4
		C837.8,283.7,836.5,283.3,835.2,283z"/>
	<path class="st22" d="M1021.5,76c1.7,0.3,3.1,1,4,3c-3.3,8.4-10,10.3-16,13.1c-17.1,7.9-34.8,12.8-52.7,16.8
		c-3.2,0.7-6.3,3.9-9.8,1c5.8-3.9,12-6.6,18.2-9.1c1.3-0.6,2.7-1.3,4-1.9c2.1,0.7,4.1-0.4,6.1-1.1c11.5-3.8,23.1-7,34.2-12.7
		C1013.9,83,1018.2,80.6,1021.5,76z"/>
	<path class="st74" d="M870,147c1.2,10.5,4.2,20.5,6.3,30.8c3.2,15.7,6.1,31.5,9.8,47.1c3,12.5,5.4,25.3,8.3,37.8
		c2,8.7,3.8,17.5,5.7,26.3c-0.8,0-1.6,0-2.4,0c-3-2.9-3.2-7.5-4-11.5c-2.2-10.2-4.2-20.5-6.3-30.7c-2.8-12.9-5.6-25.8-8.2-38.8
		c-0.9-4.5-1-9.5-3.6-13.3c-0.4-0.2-0.7-0.4-1-0.8c0.7-4.4-0.4-8.4-1.7-12.4c-0.1-6.9-2.2-13.2-3.5-19.8c-0.7-3.7-1.2-7.5-2.3-11
		c-0.4-1.3-0.2-2.6,0.6-3.7C868.5,147,869.3,147,870,147z"/>
	<path class="st75" d="M1021.5,76c1,2.8-1,3.2-2.1,4.3c-5.9,5.4-13,8-19.8,10.8c-9.2,3.8-18.7,6.1-28.1,9.1
		c-1.1,0.4-2.1,0.9-2.3-1.2c5.5-4.5,11.6-7.5,17.4-11c10.2-3.2,20.4-6.5,29.3-14C1017.7,74.7,1019.6,75.3,1021.5,76z"/>
	<path class="st69" d="M733.7,134c1.3-1.7,3-0.9,4.5-1c15.5-1,30.8-2.2,46.1-5.8c3.8-0.9,7.8-0.9,11.4-2.3c0.1-2.2-1.7-2.4-2-3.9
		c0.3-0.3,0.6-0.8,0.9-0.9c10.9-0.8,21.6-2.4,32.3-4.5c4.4-0.8,9.4,1.2,13-3.8c1,0.5,2.1,0.8,2.9,1.4c0.8,0.6,2.5,0.1,2.2,2.1
		c-0.2,1.3-1.3,1.3-2.3,1.5c-12.1,2.1-24.2,3.8-36.3,5.2c-3.2,0.3-7.2-0.6-9.3,4.5c-0.8,1.9-3.6,1.6-4.4,1.4c-3-0.4-5.9,1-8.5,1.7
		c-3.3,0.8-6.6-0.2-9.9,1.4c-2.5,1.2-5.9,1.3-8.9,1.4c-2,0.1-4.2,1.4-5.4,0.9c-5.2-1.8-9.8,2.4-14.9,1
		C741.5,133.5,737.5,134.1,733.7,134z"/>
	<path class="st28" d="M851.8,177c-2-8.1-2.5-16.4-3.2-24.7c-0.2-3.1-1-4.7-3.7-4.3c-2.5,0.3-5,0-7.5,0c6.3-1.9,12.8-0.6,19.1-0.9
		c1.9,4.1,2.4,8.7,3.1,13.2c0.6,3.6,1.3,7.1,2,10.6c1.1,5.4,1.1,5.4-3.3,7c-0.4,0.2-0.9,0.3-1.3,0.3
		C855.2,178.2,853.3,178.9,851.8,177z"/>
	<path class="st76" d="M1015.9,74c-1.3,4.8-5.2,5.4-8.2,6.9c-5.9,3.1-12.2,5.2-18.3,7.7c-1,0.4-2.1,0.7-2.9-0.7
		c0.7-2.4,2.6-3.2,4-4.5c4-3.5,7.1-7.9,10.2-12.5c4,0.7,7.9,1.3,11.9,2C1013.7,73.7,1014.7,74.1,1015.9,74z"/>
	<path class="st77" d="M1029.2,48.3c0.6,1.2,1.1,2.5,1.7,3.7c-0.5,4.9-4,6-6.6,7.4c-6.2,3.4-12.8,5.9-19.1,8.9
		c-1.9,0.9-3.3,0.7-4.4-1.3c0-0.3,0-0.7,0-1c2.8-3.3,6.7-3.4,9.9-5.2c4.9-2.7,10.3-3.8,14.8-7.7
		C1027.2,51.7,1028.4,50.3,1029.2,48.3z"/>
	<path class="st78" d="M858.2,177.1c0.7-1.7,2.2-0.7,3.3-1.5c-1.7-9.4-3.9-18.8-4.9-28.6c1.6,0,3.2,0,4.8,0c1.5,2.8,2.2,6.1,2.5,9.4
		c0.5,5.2,1.8,10,2.9,15c1.2,5.9,0.6,6.8-4.1,6.9c-0.6,0-1.3,0-2,0C859.7,178.3,858.9,178,858.2,177.1z"/>
	<path class="st79" d="M867.7,147c1.9,9.2,3.8,18.4,5.5,27.6c0.5,2.4,2.9,5.1-0.2,7.5c-2.4,0.8-4-0.1-4.8-3.2c0.8-2,0.2-3.8-0.2-5.7
		c-1.3-6.5-3-13-4.2-19.6c-0.4-2.2-0.9-4.6,0.6-6.6C865.5,147,866.6,147,867.7,147z"/>
	<path class="st80" d="M864.5,147c0.2,9.9,3.3,19,5.4,28.4c0.6,2.4,1.1,3.8-1.6,3.7c-2.9,1.1-5.8,1.5-8-2c6.4-0.3,6.6-0.3,4.8-8
		c-1.7-7.2-2.9-14.6-3.8-22.1C862.4,147,863.5,147,864.5,147z"/>
	<path class="st73" d="M822.5,149.1c-0.2,0.3-0.6,0.6-0.8,0.9c-1.3,0-2.7,0-4,0C819.1,148.4,820.9,149.2,822.5,149.1z"/>
	<path class="st27" d="M1026.2,87c0-1.3,0-2.6,0-4.2c1.3,1,0.6,2.2,0.8,3.2C1026.8,86.3,1026.5,86.7,1026.2,87z"/>
	<path class="st81" d="M778.1,41c6.7-7.3,14.3-10.6,23.2-10.1c5.2,0.3,10.5,0.1,15.6,0.1c1.5,0.1,2.7,1.2,3.8,2.2
		c3.2,2.8,3,6.1-0.4,9.1c-1.9-1-1.5-4.5-3.6-5.1c-7.4-4.2-14.9-3.2-22.4-0.9c-2.5,0.7-4.8,1.5-7.1,2.7c-4.2,2-4.9,4.8-3.1,10
		c0.2,0.8,0.1,1.6-0.4,2.3c-3.3,1-5.2-1.8-6.7-4.7C775.9,44.6,776.3,42.4,778.1,41z"/>
	<path class="st82" d="M820.1,42c3.1-4.4,2.9-5.8-0.9-8.5c-0.9-0.7-1.9-1.1-2.3-2.5c0.2-0.7,0.6-1.3,0.8-2c2.9,0.2,5.3,1.8,7.9,3
		c0.6,0.3,1,0.7,1.6,1c0.9,1.5,0.9,3,0.3,4.7c-1.6,5.2-8.7,10.9-13.5,10.7c-1.1-1.9,0.2-2.7,1.1-3.3C816.9,44.2,818.3,42.5,820.1,42
		z"/>
	<path class="st83" d="M778.1,41c-1.4,5.4-0.2,7.6,5.5,10c6-0.7,12-1,17.9,0.5c0.8,2.7-1,2.6-2.1,2.7c-7.6,0.3-15.2,1.4-22.6-2.4
		c-1.5-0.8-3.4-1-3.6-3.8c-0.6-2,0-4,0-6C775,42.4,776.5,41.3,778.1,41z"/>
	<path class="st84" d="M836,109c1.3-0.1,2.5,0.2,3.2,2c-7.8,1.3-15.5,2.8-23.3,4c-7.4,1.1-14.8,2.1-22.2,3c-1.3,0.2-2.3,0.5-2.9,2
		c-1-0.3-2.1-0.7-3.2-1c-0.6-0.3-1.1-0.8-0.9-1.8c1-2.1,2.8-2.3,4.5-2.5c12.2-1.2,24.3-3.6,36.5-5.2c0.8-0.1,2.5,0.4,1.5-2
		c-0.4-0.6-0.7-1.3-0.6-2.1c1.7-4,5.2-3.2,7.8-3.5c15.5-1.6,30.8-4.9,46.1-7.9c27.4-5.3,54.5-12.1,81.3-21.2
		c10.4-3.6,20.8-7.5,30.3-14.3c1.4-1,2.9-1.9,4.4-0.5c0.2,0.3,0.6,0.7,0.8,1c0,0.7,0,1.3,0,2c-8,4.7-16.1,9-24.6,12.4
		c-11.3,4.5-22.8,8.1-34.3,11.4c-13.9,3.9-27.7,7.6-41.8,10.5c-10.2,2.1-20.5,4.2-30.8,5.9c-10.3,1.7-20.5,3.5-30.9,4.9
		C835.2,106.3,835,107.3,836,109z"/>
	<path class="st85" d="M838.3,38c6.1-5.6,12.4-10.5,19.8-13c0.2,3.3-2.1,4-3.6,5c-3.3,2.1-5.8,4.9-7.8,8.6c-1.6,1.6-3.2,3.2-4.8,4.7
		c-13.6,9-28.1,14-43.4,16.1c-8.5,1.2-17,2.8-25.6,1.7c-1.4-0.6-3-0.7-4.5-1.1c-3.6-1.2-7.7,0.2-11.2-2.4c-0.9-0.6-2.1-0.7-2.1-2.5
		c1.6-3.4,4-2.5,6.3-2c6,1.2,12.1,2,18.2,2.5c13.9,0.4,27.6-0.8,40.8-7c4.6-2.1,9-4.6,13.1-8.1C834.8,39.3,836.2,37.4,838.3,38z"/>
	<path class="st42" d="M842.3,42c0.8-2.2,2.4-3.1,4-4c4.4-4.2,9.6-6.7,14.7-9.2c5.9-2.8,11.8-5.6,17.6-8.7c1.3-0.7,2.6-1.5,4.1-1.1
		c0.6,0,1,0,1.6,0c1.7,2.2,5.3-0.1,6.3,4c-2,4.2-6.1,3.2-8.8,5.5c-4.9,0.5-9.4,3-14,5.2c-7.4,3.7-14.6,7.7-22.3,10.1
		C844.4,43.7,843.2,43.4,842.3,42z"/>
	<path class="st86" d="M882.7,19c-11.9,7.2-24.5,12.1-36.5,19c1.3-4.3,4-6.7,7.2-8.6c1.7-1,3.6-2.1,4.7-4.4
		C865.8,19.3,873.5,14.2,882.7,19z"/>
	<path class="st87" d="M838.3,38c-12.1,11.3-25.8,16.4-40.6,18.2c-6,0.7-12.1,0.5-18.1,0.8c-5.2-1.1-10.3-1.8-15.4-3.2
		c-1.8-0.5-4.1-0.5-4.4-3.8c3.8-0.4,7.4,1.6,11.1,2c1.6-1.4,3-0.2,4.5,0.2c17.1,4.8,33.4,1.9,48.9-8.2c2.9-1.9,4.4-5.8,7.6-7
		c0.6-1,1-2,1.6-3c3.3-0.7,4.4-6,7.9-6C841.3,31.7,839.2,34.6,838.3,38z"/>
	<path class="st43" d="M689.3,100c0.2-2.4,1.3-3.7,3.2-4c8.4,2.8,17,1.6,25.4,1c6.2-0.4,12.3-0.4,18.5-0.7c4.4-0.3,8.9-0.6,13.3-1
		c1.5-0.3,2.9,0.1,4,1.2c0.6,0.7,1,1.4,0.7,2.4c-1.4,3.2-4.3,2.2-6.3,2.8c-3.6,1-7.5,0.9-11.3,1.2c-6.6,0.5-13.3-0.6-19.7,1.9
		c-1.5,0.6-3.1,0.6-4.7,0.6c-5.8,0-11.6,0.3-17.4-0.1C692.5,105,689.2,105.2,689.3,100z"/>
	<path class="st88" d="M770.2,107c-4.7,3.6-10.1,3.1-15.1,3.9c-10.2,1.6-20.5,3.2-30.9,3.8c-11.9,0.7-23.9,2.8-35.6-1.7
		c-0.7-1.7-1-2.7,1.2-2.1c5.7,1.5,11.5,1.1,17.3,1.1c15.7-0.2,31.3-1.7,46.9-4.8c2.9-0.6,6-0.3,9-1.1c1-0.3,1.7-0.6,1.8-2
		C767,103.4,768.9,104.2,770.2,107z"/>
	<path class="st89" d="M759.8,101c-1.7,3.6-4.8,2.1-7.4,2.9c-4,1.2-8.1,1.5-12.1,2.5c-2.7,0.6-5.4,0.2-8.1,0.4
		c-12.5,1-25,1.7-37.5,1.2c-1.8-0.1-3.6-0.5-5.5-1c-2.1-0.6-2-2.1-0.9-3.9c10.5,3.6,21,2.5,31.5,0.7c2.5-0.4,5-0.4,7.5-0.8
		c4.8-0.7,9.8-0.6,14.6-1.1c3.3-0.3,6.5-0.9,9.8-0.9c1.7,0,2.8-0.7,3.8-2.1C757.5,97.9,758.7,99.4,759.8,101z"/>
	<path class="st90" d="M750.3,96c-4.5,2.1-9.3,0.9-13.9,1.7c-5.5,0.9-11.3-0.3-16.7,0.6c-8,1.3-16,0.3-24,0.6
		c-1.4,0.1-2.9-0.6-3.2-2.9c0-0.3,0-0.7,0-1c0.6-1.8,1.7-2.8,3.3-2.1c4.8,2.7,9.9,2,14.8,1.4c9.9-1.2,19.8-0.4,29.7-0.8
		c1.3,0,2.6,0.2,4-0.3C746.6,92.9,748.9,92.9,750.3,96z"/>
	<path class="st91" d="M759.8,101c-1.7,0.6-2.5-1.9-4-2c-0.9,0.5-1.3-0.2-1.6-1c-0.2-0.3-0.6-0.7-0.8-1c0.3-0.4,0.7-0.7,1.1-0.9
		c6.2,0.7,12.2,2.7,18.4,3.5c4.7,0.3,9.3-1.6,14-1.1c2.2,0.2,4.4,0.2,6.3,2.2c0.7,3.7-1.6,3.4-3.3,3.7c-6.3,1.2-12.7,1.8-19,2.6
		c-0.2,0-0.6,0-0.8,0c-1.8-1-3.7-2-5.5-3C763,103,761.4,102,759.8,101z"/>
	<path class="st92" d="M754.3,98c0.6,0.3,1,0.7,1.6,1c0.9,3.2-1.3,2.8-2.5,2.9c-8.9,0.8-17.8,0.9-26.6,2.2c-8,1.2-16.1,2.1-24.1,2.2
		c-4.8,0-10.1,1.4-14.2-3.3c0-1.1-0.2-2.3,0.8-3c1,3.3,3.3,3.9,5.8,4c6.4,0.1,13.2,1.6,19.3-0.4c6.2-2,12.3-0.7,18.3-2.2
		c4-1.1,8.6,0.5,12.8-0.4C748.4,100.3,751.6,100.2,754.3,98z"/>
	<path class="st92" d="M694.8,93c-0.8,0.7-1.6,1.3-2.4,2c-2.1-1.8-5.1-0.7-7.1-3c-0.2-3.8,1.3-5.1,4-3.8c1.7,0.8,3.3,0.6,4.9,0
		c1.5-0.5,2.8,0.4,3.8,1.8C697.9,92.6,696.2,92.5,694.8,93z"/>
	<path class="st33" d="M994.5,51c0.7,0.4,1.3,1,1.6,2c0.2,2-1,2.6-2.1,3.2c-3.9,2.5-7.7,5.1-11.8,7c-26.6,12.1-54.3,19-82,25.8
		c-14.8,3.6-29.8,6.9-44.8,9.1c-9.1,1.3-18.2,3.4-27.4,4.3c-1.7,0.2-3,0.5-3.6,2.9c-0.6,2.1-2.1,2.8-3.8,3.1
		c-8.5,1.2-16.9,3.2-25.4,4c-4.4,0.4-8.8,2.2-13.2,0.7c-0.8-0.3-1.6-0.7-2.4-1l0,0c-0.6-4.2,2.2-3.7,3.7-3.9
		c5.2-0.7,10.5-1.9,15.7-2.3c5.7-0.4,11.3-1.6,16.9-2.5c2.5-0.4,5.1-0.5,6.7-4.1c1-2.3,3.7-2.2,5.8-2.5c22.4-2.9,44.6-7.2,66.8-12.3
		c24.9-5.7,49.7-12.4,73.9-21.8c7.2-2.8,14.3-5.8,20.9-10.7C991.5,51,992.9,49.7,994.5,51z"/>
	<path class="st93" d="M782,113c6.9-1,13.8-2,20.7-3c6.2-1,12.4-2,18.6-3.1c0.6-0.1,1.7-0.5,1.7-0.9c1.2-8.2,6.7-5,10.2-5.8
		c11.4-2.6,23-3.9,34.5-6c18.3-3.4,36.5-7.5,54.5-12.3c21.5-5.7,42.9-12,63.4-21.9c3.6-1.8,6.9-4.7,10.4-7.1c0.6,0.3,1,0.7,1.6,1
		c0,0.3,0,0.7,0,1c-3.8,4.9-8.7,7.4-13.6,9.7c-17.9,8.5-36.5,13.8-55.1,19c-14.2,4-28.5,7.3-42.9,10.1c-18.2,3.6-36.5,7.2-54.9,9.3
		c-1.3,0.2-3.2-0.1-2.3,3c0.2,0.3,0.6,0.7,0.8,1c-0.2,2.6-2,2.3-3.3,2.6c-12.1,2.3-24.1,3.9-36.2,5.4c-1.7,0.2-3.4,0.5-5,1.3
		c-1,0.4-1.7-0.1-2.3-1.3C782.6,114.3,782.3,113.7,782,113z"/>
	<path class="st33" d="M786.8,118c0.2,0.3,0.6,0.7,0.8,1c-2.9,3.6-6.7,2.2-10,2.9c-10.6,2-21.3,3.4-31.9,4.9
		c-4.7,0.6-9.4,1.1-14.2,1.2c-8.1,0.2-16.3,0.5-24.3,0.2c-4.5-0.2-8.9-1.3-13.1-3.1c-1-0.9-2.2-2.2,0.3-1.9c2.5,0.3,5.1,1.2,7.6,1.9
		c4.3,0.9,8.6,1.1,12.9,1c12.6-0.4,25.3-1.1,37.8-3.1c10.6-1.7,21.4-2.1,31.8-6C785.5,116.3,786.3,116.7,786.8,118z"/>
	<path class="st94" d="M785.2,117c-3.6,3.8-8.2,3.3-12.4,3.8c-11.8,1.5-23.6,3.5-35.5,4.5c-7.7,0.7-15.4-0.4-23.1,1.5
		c-4,1-8.2-0.3-12.3-1.8c7.6,0,15.3,0.3,22.9-0.1c10.1-0.4,20.1-2.2,30-3.5c7.5-0.9,14.8-2.2,22.2-3.5c2.1-0.4,4.5,0.2,5.7-2.9
		c0.6,0.3,1,0.7,1.6,1C784.9,116.1,785.1,116.4,785.2,117z"/>
	<path class="st95" d="M994.5,51c-5.9,3.3-11.4,7.4-17.6,10c-14.2,6-28.7,10.8-43.3,15c-21.1,6-42.3,11.2-63.7,15.2
		c-14,2.6-28,5.2-42,7c-2.2,0.3-5.2,0.3-5.9,4.5c-0.2,1.5-1.7,1.2-2.7,1.4c-11.5,2.3-23.1,3.5-34.7,5.1c-1.7,0.2-4.1-0.4-4.9,2.9
		c-1.3-1-2.6-2-4-3c0.5-3.5,2.9-3.1,4.7-3.2c12-0.8,23.7-3.5,35.5-5.2c1.3-0.2,2.7,0.1,3.3-1.8c1.3-2.4,2.3-5.4,5.3-5
		c3.2,1.5,6.3,0,9.4-0.5c42.6-6.8,84.8-16.2,126.2-30.8c9.7-3.4,19.1-7.6,28-13.7c1.5-1,2.9-2.4,4.8-0.9c0.2,0.3,0.6,0.7,0.8,1
		C994,49.7,994.3,50.3,994.5,51z"/>
	<path class="st20" d="M820.1,99c1.1,3.3-1.3,2.8-2.2,2.9c-12.5,1.2-24.8,5-37.4,5.1c-1.7,0-3.3,0.5-4.8,2c-0.2,0-0.6,0-0.8,0
		c-1.3-0.7-2.6-1.3-4-2c0.9-2.3,2.5-1.8,4-2c5.5-0.6,11.1-1.4,16.6-2c1-0.1,1.3-0.9,1.4-1.9c0.5-0.6,1-1.1,1.7-1.2
		c7.5-1.5,14.9-2.7,22.4-2.2C818.3,97.7,819.4,97.9,820.1,99z"/>
	<path class="st96" d="M832,37c-5.7,9.9-14.4,13.1-23.1,16c-6.1,2-12.4,2.3-18.6,2.8c-6.5,0.6-13-1.3-19.3-3.8
		c-0.2-0.7-0.6-1.3-0.8-2c0.6-0.7,1-1.3,1.6-2c0.6,0,1,0,1.6,0c5.5,4.5,11.7,5.6,18.1,5.1c3.5-0.3,7.1,1.2,10.5-1.1
		c1.7-2.5,4.4-1.9,6.5-2.9c1.7-0.2,3.3-0.7,4.8-1.2c0.2,0,0.4,0,0.6,0c7.5-1.6,13.1-7.8,13.5-15C828.8,34.3,830.4,35.7,832,37z"/>
	<path class="st97" d="M759.8,50c5.3,4.3,11.5,4.4,17.4,6c0.9,0.2,1.8-0.1,2.5,1c-6.2-0.4-12.4-1.3-18.5-2.6
		c-2.1-0.5-4.1-0.7-6.1,0.6c-0.2,0-0.4,0.1-0.6,0.1c-1.9,0.3-3.8,0.1-5.7,0.3c-4.6,0.2-9.2-0.2-13.7,0.7c-1.7,0.3-3.4,0-4.5-2.1
		c0.4-2.1,2.4-1.6,3.2-3c3.1-3,6.3-3.5,10.2-2.4c3,0.9,6.3,0.4,9.4,0.3C755.6,48.9,757.7,49.2,759.8,50z"/>
	<path class="st98" d="M881.9,28c2.1-3.8,6.2-2.3,8.7-5c2.6-3.1,5.9-2.8,9.1-3c1.7-0.1,3.4,0,5.2,0c1.6,0,3.2,0,4.8,0
		c0.6,3-1.3,4-2.9,5.1c-3.6,2.5-7.5,4-11.2,6.2c-5.3,3.1-10.6,6.4-15.5,10.7c-1.3,1.1-2.5,2.4-4.3,2.3c-1.4-1-0.6-3-1.3-4.3
		c-0.3-1.6-0.8-3.2,0.2-4.6C877.5,33.2,879.7,30.6,881.9,28z"/>
	<path class="st17" d="M836,109c-0.9-0.6-1.8-1.3-3.1-2.2c3.6-3,7.4-2,10.9-2.6c13.1-2.2,26.2-4.2,39.2-6.9
		c12.9-2.6,25.8-5.9,38.6-8.9c16.9-3.9,33.5-9,50.1-14.8c8.2-2.9,16.6-6.2,24-12.2c1.2-1,2.4-1.5,3.6-0.3c0,0.3,0,0.7,0,1
		c-7.5,5.3-15.4,8.9-23.5,12.2c-10,4.1-20.1,7.2-30.4,10.3c-13.5,4.1-27.1,7.5-40.7,10.5c-10.3,2.3-20.5,5.1-30.9,6.5
		c-11.6,1.6-23.1,4.2-34.6,5.5C837.8,107.1,836.2,106.5,836,109z"/>
	<path class="st22" d="M828.8,106c-1.1-0.1-2-0.6-2.8-1.7c1.3-1.9,2.9-2.3,4.7-2.4c9.8-0.4,19.5-3.3,29.3-4.5
		c11.7-1.4,23.3-4.5,35-6.6c10-1.8,19.8-4.9,29.7-7.3c15.9-3.9,31.6-8.8,47-14.6c9-3.4,17.9-7.4,26-13.9c0.2,1,0.6,2,0.8,3
		c-2.4-0.4-3.9,1.8-5.7,2.9c-15.9,10-33.1,14.8-50.2,19.9c-21,6.3-42.3,11-63.7,15.2c-15.7,3.1-31.3,5.8-47.1,7.9
		C830.5,104.1,829.4,104.4,828.8,106z"/>
	<path class="st36" d="M992.9,48c-4.4,1.1-8,4.8-12.1,7c-14.4,7.8-29.7,12.3-44.8,16.9c-13,3.9-26,7.8-39.2,10.8
		c-16.5,3.8-33,7.1-49.5,10.1c-6.5,1.1-13,2.1-19.4,3.1c-1.3,0.2-3.3,1.2-3.8-1.9c-0.3-0.8,0-1.4,0.4-2c1.4-1.7,2.6-4,5.1-3.1
		c4.5,1.4,8.9-0.7,13.2-1.4c20.4-3.2,40.7-7.8,60.8-12.9c21.2-5.4,42.3-11.4,62.9-19.9c6.5-2.7,13.1-5.3,18.8-10.3
		c1.1-1,2.4-1.4,3.7-0.4c0.2,0,0.6,0,0.8,0C990.8,45.3,991.9,46.7,992.9,48z"/>
	<path class="st99" d="M963.6,29c1.3,0.3,2.6,0.7,4,1c0.7,1.6,2.5,0.4,3.2,2c-2,3.1-4.6,4.8-7.4,6.4c-9.3,5.4-19.1,8.7-28.9,12.1
		c-26.1,9.2-52.3,17.2-79,23.2c-3.9,0.9-7.8,1.4-11.7,2.3c-1.4,0.3-2.9,0.4-4-1.3c-0.3-4,2.2-4.8,4.4-5.9c0.8-0.3,1.7-0.5,2.5-0.2
		c5,0.7,9.7-1,14.4-2.3c20.6-5.7,41.1-12.2,61.4-19.6c9.4-3.4,18.8-6.7,27.9-11.1c3.2-1.5,6.4-3,9.2-5.8
		C960.7,28.7,962.1,27.9,963.6,29z"/>
	<path class="st40" d="M839.9,74c1.2,1.6,2.7,1.1,4,0.8c25.1-5.4,49.9-11.7,74.4-20.3c15.1-5.3,30.3-9.6,44.7-17.4
		c2.7-1.4,4.4-4.9,7.5-5.1c1.3,0.2,2.4,0.7,3.2,2c0.2,3.6-2.1,4.7-4,6c-6.4,4.3-13.3,7.2-20.3,9.8c-29.4,10.6-59.1,19.5-89.3,25.8
		c-5.5,1.2-11.2,2.4-16.7,3.5c-1.7,0.4-3.6,1.2-5.5,0.2c-0.4-0.3-0.7-0.7-1-1.1C837,75.6,837.5,73.9,839.9,74z"/>
	<path class="st100" d="M837.5,78c4.1,1.4,8.1-0.5,12-1.4c18.9-4.3,38-8.3,56.7-14c19.7-5.9,39.5-11.5,58.3-20.9
		c3.5-1.7,7.3-3.2,9.4-7.8c0.6,0,1,0,1.6,0c1,1,2.1,2,3.2,3c-0.6,3-2.6,4-4.4,5.3c-9,6.2-18.9,9.4-28.6,12.9
		c-6.7,2.4-13.2,5.6-20.4,6.2c-5.7,0.3-11,3.3-16.6,4.7c-17.4,4.5-34.8,9.1-52.3,12.9c-5.1,1.1-10.1,2-15.2,2.9
		c-1.7,0.3-3.6,0.6-4.1-2.4C837.1,79,837.2,78.4,837.5,78z"/>
	<path class="st101" d="M983.4,40c0.2,0,0.6,0,0.8,0c0.2,0.3,0.6,0.7,0.8,1c0.6,4-2.1,5-3.9,6.3c-5.4,3.8-11.3,6.4-17.2,8.6
		c-16.3,6.2-32.7,11.2-49.4,15.9c-21.1,6-42.4,10.5-63.7,14.8c-5.2,1.1-10.5,2.4-16,2.4c-1.5,0-2.9,0.3-3.9-1.6
		c-0.3-1.2-0.2-2.3,0.8-3c0.4-0.2,0.9-0.3,1.3-0.3c5.2,0.5,10.2-1.1,15.2-2.1c22.3-4.2,44.4-9.1,66.4-15.5
		c19.7-5.7,39.5-11.6,58.4-20.9c2.5-1.2,4.8-2.6,7-4.6C980.9,40.2,981.9,39,983.4,40z"/>
	<path class="st101" d="M831.2,87c4.5,2.8,9.1,0.5,13.5-0.3c16.6-3.1,33.1-6.5,49.5-10.7c23-5.9,45.9-12.4,68.3-21
		c7.4-2.8,15-5.2,21.2-11.7c0.6-0.7,1.2-1.2,1.3-2.3c1.7,0.2,2.8,1.7,4,3c-2.9-0.7-3.9,2.9-6,4.1C972.6,54,961.9,58.2,951,62
		c-17.7,6.1-35.6,11.1-53.6,15.6c-15.3,3.8-30.6,7.3-46.1,10.1c-6.2,1.1-12.4,2.2-18.6,3.2c-1.3,0.2-3.3,1.2-3.8-1.9
		C828.8,86.8,829.9,86.6,831.2,87z"/>
	<path class="st102" d="M963.6,29c-3.8,0.3-5.8,4.6-9.2,6.2c-18.9,9.1-38.5,15.3-58,21.8c-14.3,4.8-28.6,9.3-43.2,12.5
		c-2.2,0.5-4.8,2.4-6.9-0.5c1-2.6,2.9-3.4,5-3.5c6.5-1.1,12.8-3.6,19.2-5.3c11.7-3.1,23.1-7.7,34.6-11.8c13.8-5,27.7-9.4,41.1-16.4
		c0.7-0.4,1.5-0.7,2.2-1.1c1.3-0.8,3.3-1.1,3.3-3c0.1-2.4-2.1-1.7-3.3-2.5c-0.7-0.4-1.5-0.7-2-1.6c-0.1-0.2-0.2-0.5-0.2-0.7
		c0.1-1.9,0.9-2.9,2.4-3c3.4-0.3,5.4,3.1,7.9,5C958.4,27.7,961.5,27,963.6,29z"/>
	<path class="st103" d="M710.7,84c0.8-0.7,1.6-1.3,2.4-2c1.7-1.8,3.8-1.4,5.8-1c4,1.8,7.6,5.2,12.2,5c1,0.3,2,0.8,2.9,1.3
		c1.4,1.7,4.6,0.8,4.4,4.9c-1.4,1.6-3.2,1.4-4.9,1.2c-6-0.5-12.1,0.2-18.2-0.7c-3.5-0.5-7.1-0.2-10.7,0.2c-1.8,0.2-3.8,0.5-4.3-2.8
		C703.3,86.7,706.7,84.5,710.7,84z"/>
	<path class="st42" d="M700.4,90c1,1.3,2,2,3.5,1.7c5.9-1.2,11.7-0.3,17.6-0.1c5.6,0.2,11.3,1.4,17-0.6c2.3-1.4,4,0.4,5.7,1.8
		c0.3,0.3,0.5,0.7,0.6,1.2c-1,1.5-2.5,0.9-3.7,1c-6.4,0-12.8,0-19.3,0c-7.2,0-14.3,1.6-21.6,1c-2.1-0.2-4.2-0.4-5.5-3
		c0.4-2.1,2.4-1.6,3.2-3C698.8,90,699.6,90,700.4,90z"/>
	<path class="st104" d="M925.5,60c6.9-0.6,13.2-3.8,19.7-6.1c9.3-3.3,18.7-6.4,27.4-12.1c2.1-1.4,4-3,5.9-4.8c0.8,0.3,1.6,0.7,2.4,1
		c0,0.3,0,0.7,0,1c-0.7,2.9-2.7,4-4.6,5.1c-12.3,7.1-25.2,11.4-38.2,15.8c-10.3,3.5-20.7,6.2-31.1,9.4c-1.5,0.4-3.1,1.4-4.5-0.2
		c-0.3-2.2,1.1-1.8,2-2.1c6.3-1.9,12.8-3.9,19.1-6C924.4,60.8,925.1,60.6,925.5,60z"/>
	<path class="st42" d="M768.6,59c1.3,0.2,2.9-0.7,4,1c-0.2,2.7-2.2,2.1-3.4,3c-0.6,0.2-1.3,0.3-2,0.4c-12.7-0.6-25.3,2-38,2.2
		c-1.8,0-3.8,0.1-4,3.4c-2.2,5.8-6.4,7.6-11.3,5l0,0c-0.2-1.7,0.6-3.6-0.8-5c0.2-1,0.6-2,0.8-3c0.1-0.1,0.2-0.4,0.2-0.4
		c7.7-0.2,13.5-9,21.8-7.3c5.6,1.1,11.5-1.3,17.4-0.8C758.4,57.9,763.5,58.5,768.6,59z"/>
	<path class="st105" d="M902.6,69c7.8-0.3,15.1-3.9,22.6-6c15.6-4.4,31.1-9.5,46-17c3.6-1.8,7-3.8,9.9-7c0.9,0,1.8-0.2,2.4,1
		c-17.2,13.8-37.1,18.1-56.3,24.3c-22,7.1-44.5,12.5-67,16.8c-7.8,1.5-15.8,3.2-23.6,4.8c-1.3,0.2-2.6,0.7-3.7-0.9
		c-0.3-1.7,0.6-2.2,1.6-2.5c2.1,0.2,4.3,0.5,6.3-0.4c0.6-0.1,1.2-0.3,1.7-0.4c4.4-0.2,8.6-1.4,12.9-2.2c0.4-0.1,0.7-0.2,1.1-0.4
		c1.4-0.4,2.9-0.2,4.3-0.7c0.3-0.1,0.6-0.2,1-0.3c1.2-0.2,2.4-0.3,3.6-0.9c0.6-0.2,1-0.3,1.6-0.4c1.3-0.1,2.6-0.1,3.8-0.7
		c0.4-0.2,0.8-0.3,1.2-0.4c9.2-1.8,18.2-4.4,27.3-6.7c0.9-0.2,1.8-0.5,2.7-0.3C902.2,68.9,902.3,69,902.6,69z"/>
	<path class="st106" d="M768.6,59c-3.6,0-7.1,0.2-10.7,0c-9.6-0.6-19.2,1.6-28.8,1c-1-0.1-2.1-0.2-2.6,0.8
		c-3.1,6.1-7.9,5.3-12.6,5.2c0-0.7,0-1.3,0-2c-0.1-2,0.3-3.7,1.6-5c1.2-0.8,2.5-1.3,3.3-2.9c4.1,0.6,8.3,2.7,11.8-2.1
		c4.8,2,9.5-0.9,14.3,0c1.5,0.3,3.2,0,4.7,0c1.7,1.3,3.8-0.3,5.5,1l0,0c3.3,2,6.6,3.5,10.2,3C766.4,57.9,767.7,57.6,768.6,59z"/>
	<path class="st30" d="M916.8,20c2.1,0,4.2,0,6.3,0c1.1,1.7,2.6,0.8,4,1c0.2,3.5-2.1,4.3-4,5.3c-6.7,3.8-13.7,6.7-20.6,10
		c-4.5,2.2-8.9,5-13.6,6.9c-1.3,0.5-2.4,1.4-3.8,1c-1.3-2.7,0.4-3.9,1.7-5.2c3.6-3.7,7.8-6.6,12-9.4c4.8-3.1,9.6-5.9,14-9.7
		C914.2,20,915.5,20,916.8,20z"/>
	<path class="st85" d="M912.9,20c-0.9,2.3-2.6,3.1-4.3,4.2c-7.3,4.6-14.3,9.8-20.9,15.7c-1.2,1.1-2.5,2-2.5,4.1
		c-1.8,3.6-5.1,4.5-7.8,6.4c-5.5,3.8-11.5,5.5-17.4,7.9c-1.3,0.5-2.5,1-3.6-0.6c-0.2-0.5-0.2-1-0.2-1.5c0.8-2.3,2.1-3.7,4-4
		c3.8-0.2,6.7-3.3,9.8-5.3c1.8-1.1,3.3-3.4,5.5-2.9c9.4-8.1,19.7-14.1,30.1-19.5c1.7-0.9,3.3-2,4-4.5C910.7,20,911.8,20,912.9,20z"
		/>
	<path class="st42" d="M856.6,57c1.2,1.9,2.5,0.3,3.6,0c8.8-2.8,17-7.6,25-13c11.3-6,22.6-11.7,34.1-16.9c2.9-1.3,6.1-2.4,7.9-6.1
		c2.4,0,4.8,0,7.1,0c0.2,0,0.6,0,0.8,0c2.7,2.2,2.9,3.5,0.4,5.6c-2.8,2.3-5.9,3.8-9,5.2c-17.2,7.5-34.1,15.7-51.2,23.5
		c-5.2,2.4-10.5,4-15.9,5.8c-1.7,0.6-3.8,2.1-5.5-0.6C853.9,58.2,854.6,56.8,856.6,57z"/>
	<path class="st43" d="M713.9,74c3.7-0.7,8.2,1.2,10.3-5c0.8-1.8,2.1-2.3,3.6-2.4c4.8-0.2,9.6-1.5,14.5-1.2
		c9.7-1.1,19.3-1.8,29.1-2.2c10-0.3,20-0.7,29.9-3c1.2-0.3,2.3-0.5,3.5,0.2c1.1,1.2,0.3,2.1-0.2,3.1c-2.9,2.6-6.3,2.2-9.5,2.7
		c-17.2,2.4-34.4,4.5-51.7,5.6c-4.8,0.3-9.7-0.1-14.4,1.5c-1,0.3-2.1,0.2-2.5,1.8c-0.3,1.3-0.2,2.7-0.6,4c-1.3,3.4-3.9,3-6.3,2.9
		c-2.1,0-4.2,0-6.3,0c0-0.7,0-1.3,0-2C713.3,78,713.6,76,713.9,74z"/>
	<path class="st51" d="M854.2,60c2.1,2,4.1,0.2,5.9-0.4c17.6-6,34.4-14.9,51.5-22.8c7.6-3.5,15.5-6.2,22.8-10.9
		c2.3-1.5,2.8-2.8,0.6-4.9c3.7,0.7,7.4,1.3,11.1,2l0,0c1.4,3.1-0.3,4.7-2,6c-2.3,1.9-5,3-7.6,4.2c-20.6,9.9-41.7,17.9-62.8,25.9
		c-5.7,2.2-11.7,3.8-17.7,5.2c-1.7,0.4-3.2,0.6-3.9-1.9C852.3,60.8,852.7,59.7,854.2,60z"/>
	<path class="st107" d="M753.5,176c-1.3,0-2.6-0.1-3.5-1.9c1.5-1.5,3.2-1.8,4.5-0.3C755.3,174.5,753.7,175.1,753.5,176L753.5,176z"
		/>
	<path class="st108" d="M771.7,170c-0.2,0-0.6,0-0.8,0c-1-0.2-2.1,0.5-3.2-1.7C769.6,168.3,771,166.7,771.7,170z"/>
	<path class="st66" d="M872.4,288c-3-1.3-4.4-3.3-5.1-7.9c-3.3-25.5-7.1-50.9-10.7-76.3c-0.3-2.2-0.2-4.3,1.5-5.7
		c0.2-0.2,0.6-0.2,0.8,0c4.6,0.1,4.4,4.5,5.1,8.5c4.6,25.1,9.3,50.2,14,75.2c1.2,6.2,1.2,6.2-4,6.2C873.5,288,873,288,872.4,288z"/>
	<path class="st109" d="M858.9,198c-0.2,0-0.6,0-0.8,0c-3.2-1-6.3-1.9-9.5-2.9c-2.5-1.1-4.4-3.1-5.5-6.1c-0.9-2.3-0.4-4.2,1-6
		c1.5-1.1,2.6-3,4.5-3.1c0.8-0.5,1.7-0.6,1.9,0.6c0.5,4.6,3.3,5,6,5.8c1.9,0.6,3.8-0.2,4.1-2.5c0.4-2.3-1.3-3.3-3.1-3.5
		c-1.3-0.3-2.9,0.2-3.5-2.2c1-1.4,2.5,0,3.5-1.1c0.2,0.1,0.5,0.1,0.6,0c0.7,0,1.5,0,2.2,0c2.7,0.7,5.3,1.3,8,2c1.6,1,3.1,2,4.7,3.1
		c2.9,3.4,4.1,7.2,1.5,11.8c0,1.1-0.6,1.6-1.2,2.2c-1.1,0.8-2.3,1.3-3.5,1.7c-1,0.4-2.1-0.8-3.2,0.2C864.1,198,861.6,198,858.9,198z
		"/>
	<path class="st78" d="M866.7,197.9c1-1,2.1-0.9,3.3-1c2.1-1.2,2.2,0.9,2.5,2.5c3.1,15.6,6.2,31.3,9.4,46.8
		c2.8,13.2,5.2,26.5,8.6,39.4c0.3,1.1,0.6,2.2,0.2,3.4c-1.6,0-3.2,0-4.8,0c-2.6-3.7-2.9-8.5-3.7-12.9c-4.8-23.9-9.3-47.9-14.1-71.7
		C867.6,202.2,869.4,199.2,866.7,197.9z"/>
	<path class="st110" d="M890.7,289c-3.4-7.4-4.2-15.9-6.1-24c-2.8-12-5.1-24.2-7.5-36.4c-2-9.7-3.8-19.5-5.6-29.3
		c-0.2-1.1,0-2.5-1.4-2.4c1.1-0.6,2.2-1.2,3.3-1.9c2.3,1.3,2.5,4.2,2.9,6.7c5.2,26.2,11.1,52.2,16.2,78.4c0.6,3,1.7,5.8,2.2,8.8
		C893.3,289,892,289,890.7,289z"/>
	<path class="st111" d="M894.6,289c-3.7-3.9-3.3-9.8-4.5-14.9c-3.2-13.8-5.8-27.9-8.8-41.7c-2.8-12.4-4.5-25.1-8.1-37.3
		c0.4-0.4,0.9-0.8,1.3-1.2c0.3,0,0.7,0.1,1,0.1c2.7,3.8,2.6,8.9,3.6,13.4c3.3,15.9,6.9,31.6,10.1,47.5c2.3,11.4,5.1,22.6,7,34
		C895.7,289,895.2,289,894.6,289z"/>
	<path class="st111" d="M896.2,289c-3.4-9.2-4.7-19.2-6.7-28.9c-4.7-22-9.3-44-13.9-66c0.5-1.1,1.1-2.3,1.7-0.1
		c1.1,4.7,2.2,9.4,3.1,14.2c2,10.4,4.1,20.7,6.6,31c1.4,5.8,2.5,11.8,3.6,17.7c2.3,10.8,4,21.8,7.1,32.2
		C897.2,289,896.8,289,896.2,289z"/>
	<path class="st112" d="M858.2,179c2.2,0.7,4.4,2.2,3.6,5.3c-0.7,3-2.9,4.1-5.8,3.5c-3.9-0.8-6-3.7-7.5-7.8c0.7-0.9,1.6-1.2,2.5-0.8
		c0.7-0.1,1.3,0.2,1.7,1c0.3,1.1,0.3,2.4,1.2,3.2c1,0.8,2.1,0.7,3.3,0.3c0.2-0.2,0.6-0.4,0.8-0.6C858.9,181.6,857.4,180.2,858.2,179
		z"/>
	<path class="st113" d="M852.6,180c-0.6,0-1.2-0.1-1.5-0.9c0-0.3,0-0.6,0-0.9c1-1.1,2.1-0.9,3.1-0.1c1.1,1.6,2.6,0.7,4,0.9
		c0.3,1.7,3.3,3.3,0,5C856.8,181.5,854.3,181.6,852.6,180z"/>
	<path class="st78" d="M854.2,178.1c-1,0-2.1,0.1-3.1,0.1c0.2-0.4,0.5-0.8,0.7-1.2c1.9,0,3.8,0,5.7,0.1
		C856.4,177.4,855.3,177.7,854.2,178.1z"/>
	<path class="st67" d="M844,183c-0.7,1.9-1,3.9-1,6C841.8,186.6,841.7,184.5,844,183z"/>
	<path class="st114" d="M783.6,49c-3.3-3.7-2.9-8.2,1.7-10.5c10.5-5.2,21.2-8.3,32.3-2.5c1.1,2.2,1.2,4.6-0.3,6.4
		c-3.8,4.6-8.1,7.9-13.7,7c-0.9-2.5,1-2.6,2-3.1c1.8-1,3.7-1.7,5.4-3c1-0.7,1.7-1.6,1.6-3.1s-1.2-2-2.2-2.5
		c-2.7-1.2-5.5-0.5-8.2-0.4c-3.8,0.1-7.6,0.7-11.2,2.4c-1.7,0.9-4.2,1.5-3.9,4.7c0.2,2.9,2.6,2.8,4.4,3.3c1,0.3,2.1,0.2,2.9,1.1
		c0.6,0.8,0.4,1.4-0.2,1.9C790.5,51.1,786.9,51.8,783.6,49z"/>
	<path class="st115" d="M803.5,49c3.9-0.2,7.5-2,10.7-4.4c2.5-1.8,4.1-4.6,3.6-8.6c1.9,1.3,1.8,3.9,2.4,6c-1,3.8-4.8,2.9-6.3,6l0,0
		c-1.5,1.1-3.2,1.2-4.8,2c-2.4,0.7-4.8,1.3-7.1,2c-6.1-0.3-12.2,0.7-18.2-1c0-0.7,0-1.3,0-2c3.6,1.1,7.4,1.1,11.1,1
		c0.5-0.6,1-0.9,1.6-1.1c2-0.3,4,0,6-0.4C802.7,48.5,803.1,48.6,803.5,49z"/>
	<path class="st22" d="M785.2,117c-0.2-0.3-0.6-0.7-0.8-1c1-2.6,2.9-1.8,4.5-2c13.4-2,26.9-3.1,40.1-6.3c0.2-0.1,0.4-0.4,0.6-0.6
		c1.2,0.1,2.8-0.1,2.8,1.8c0,1.8-1.7,1.3-2.5,1.5c-7.6,1.3-15.2,2.6-22.8,3.6c-5.8,0.8-11.6,2.1-17.5,2.2c-1,0-2,0.7-2.7,1.9
		C786.2,117.7,785.8,117.3,785.2,117z"/>
	<path class="st116" d="M769.4,62c0.7-1.6,2.5-0.4,3.2-2c15.7,0.1,31.2-1.7,46.3-6.9c8.1-2.8,15.8-6.9,23.5-11.1
		c1.2-0.2,2.2,0.3,3.2,1c0.1,2.4-1.5,2.9-2.8,3.6c-14.1,7.9-28.8,12.9-44.2,14.7c-8.2,1-16.4,1.7-24.7,1.9
		C772.2,63.3,770.6,63.6,769.4,62z"/>
	<path class="st51" d="M769.4,62c15.1,0.1,30.3-0.5,45-5.1c9.4-2.9,18.9-5.8,27.7-11.4c1.2-0.7,2.2-1.7,3.3-2.6
		C856,38,866.6,33,877.1,28.1c1.6-0.7,3.2-1.8,4.8-0.2c-0.8,4.3-4,5.7-6.3,8c-7,1.3-13.4,4.9-19.8,8.2c-9.7,4.9-19.5,9.1-29.7,12.3
		c-5.9,1.8-11.5,4.8-17.7,5.1c-1.2,0.1-2.4,0.6-3.3-0.6c-10.7,2.6-21.6,2.7-32.3,3.9c-3.6,0.4-7.2-0.2-10.9,0
		c-6.5,0.4-13,1-19.5,2.1c0.4-3.3,2.5-2.8,4.2-3c7.1-0.8,14.1-1.3,21.2-2C768.3,62,768.8,62,769.4,62z"/>
	<path class="st117" d="M834.4,83c-0.8,0.4-1.3,1-1.6,2c-0.2,0-0.6,0-0.8,0c-6.1-0.1-11.9,2.1-17.8,3.2c-18.5,3.4-36.9,6.7-55.6,8.4
		c-1.4,0.1-2.9-0.7-4.2,0.4c-0.2,0-0.6,0-0.8,0c-1-0.3-2.1-0.7-3.2-1c-1.8-0.9-3.6-2-5.5-2c-0.2,0-0.6,0-0.8,0
		c-0.6-3.7,1.8-3.5,3.4-3.9c3.9-0.9,7.8-0.9,11.8-1.4c21.3-2.6,42.4-6.5,63.5-11.1c3.5-0.8,7.1-1.3,10.5-2.2c2-0.5,3.7-0.4,4.4,2.7
		l0,0c0,0.3,0,0.7,0,1c-0.6,0.7-0.7,1.7-1.3,2.4C835.7,82.1,835.2,82.9,834.4,83z"/>
	<path class="st118" d="M754.3,97c4.3-3.1,9.2-2.1,13.8-2.8c11.9-2,23.9-3.2,35.8-5.7c8.6-1.8,17.4-2.9,25.9-5.3
		c1.2-0.3,2.1,0.1,2.2,1.9c-0.6,0.4-0.8,1.2-0.8,2c-0.8,0.7-1.6,1.3-2.4,2c-1.3,1.3-2.6,2.7-4,4c-5.5-1.3-10.7,1.1-16,1.9
		c-10.6,1.6-21.2,3.4-31.8,4.6c-1.6,0.2-3.2,0.2-4.5,1.5C766.4,99.7,760.4,98.3,754.3,97z"/>
	<path class="st119" d="M772.5,101c0.4-2.7,2.3-2.7,3.7-2.8c7.5-0.8,15.1-1.6,22.7-3.1c6.8-1.3,13.7-2.5,20.6-3.6
		c1.9-0.3,4.2-2.2,5.4,1.5c-0.2,0.3-0.6,0.7-0.8,1c-1.7,1.3-2.9,2.9-4,5c-9-0.7-18,1.5-27,2C786.2,98.6,779.4,101,772.5,101z"/>
	<path class="st82" d="M809,50c1.3-1.5,3-1.9,4.8-2C812.5,49.9,810.8,50.1,809,50z"/>
	<path class="st85" d="M755.1,55c-1.8-0.4-3.9,0.9-5.5-1C751.4,54.4,753.4,53.1,755.1,55z"/>
	<path class="st53" d="M805,61c17.4-3.5,34.2-9.8,50.5-18.3c5.2-2.7,10.6-4.8,16-7.2c1.3-0.6,2.8-1.2,4,0.4c-1.4,1.3,0.3,2.7,0,4
		c-3.5,4.5-8.1,5.8-12.8,6.9c-2.8-0.5-5.2,1-7.6,2c-15.1,5.9-30.2,11.4-45.7,15.3c-1.3,0.3-2.5,0.7-3.9,0.5
		c-0.7-0.2-1.1-0.8-1.3-1.7C804.5,62.3,804.8,61.7,805,61z"/>
	<path class="st87" d="M862.9,46c4.4-1.3,8.5-3.8,12.7-6c0.8,1.3,0,2.7,0,4c-4,3.3-8,6.3-12.3,8.8c-0.8,0.5-1.7,1.9-2.8,0.2
		c-0.2-0.4-0.4-0.9-0.4-1.4C860.7,49.4,859.8,46.1,862.9,46z"/>
	<path class="st120" d="M733.7,88c-0.8-0.3-1.6-0.7-2.4-1c-1.3-0.7-2.7-1.3-1.9-3.7c0.9-1.5,2.2-1.6,3.6-1.7
		c19.9-1.1,39.6-5.2,59.2-8.6c18.3-3.2,36.4-7.7,54.5-12.6c1.9-0.5,3.9-1.5,5.5,1c0.2,1.7,0.7,3.6-1.1,4.6c-1.6,1-3.2,2-4.8,3
		c-0.6,0.3-1,0.7-1.6,1c-2.3-0.9-4.4,0.6-6.5,1.1c-29.9,7.5-60,13.1-90.4,16.5C743.1,88.2,738.4,88.8,733.7,88z"/>
	<path class="st121" d="M733.7,88c0.8-1.3,1.9-1,2.9-1c10.9-0.2,21.6-2.4,32.4-3.8c10.5-1.3,21-3.2,31.5-5.3
		c12.7-2.5,25.2-5.6,37.8-8.4c2.1-0.5,4.4-1.4,6.4,0.5c-2.1,0.4-3.7,1.6-4.8,4c-1.3,0.9-2.3,2-2.4,4c-1-1.1-1.7-1.9-3.3-1.5
		c-18.6,4-37.2,8.3-55.9,11.2c-9.4,1.5-18.9,3.3-28.6,3.4c-2,0-4.5-0.3-5.7,2.9c-1.7-1.5-3.5-2.6-5.5-3
		C736.9,89.8,734.9,90,733.7,88z"/>
	<path class="st122" d="M836,81c0.3-1,0.8-1.6,1.6-2c0.3,2.5,1.7,2.1,3,1.8c24.8-4.9,49.4-11,73.9-17.9c3.7-1,7.1-3.3,11.1-3
		c-0.1,1.8-1.2,1.8-2.2,2.1c-6.3,1.9-12.7,3.9-19,5.9c-0.6,0.2-1.1,0.7-1.7,1c-10.5,2.9-21.1,5.4-31.7,8c-1.2,1.2-2.8-0.2-4,1
		c-0.6,0-1,0-1.6,0c-1.2,1.2-2.8-0.2-4,1c-1.4,1.2-3.3-0.3-4.8,1c-4.7,1.4-9.6,1.6-14.3,3c-0.6,0-1,0-1.6,0
		c-1.2,0.9-2.5,0.5-3.8,0.4C835.6,83.3,835.4,82.4,836,81z"/>
	<path class="st53" d="M851,66c0.6-1.2,1-2.5,0.8-4c0.2-0.4,0.6-0.4,0.8,0c0.7,2.1,1.9,1.5,3.3,1.2c8.3-2,16.6-4.6,24.7-7.9
		c20-8.2,40.3-15.4,59.8-25.4c2.5-1.3,5.9-1.9,5.8-6.9c2,0.7,4,1.3,6,2.1c2,0.9,2.6,2.2,0.6,4.2c-2.3,2.4-5.2,3.3-7.8,4.6
		C929.9,41.4,914.1,46,898.7,52c-15.1,5.8-30.5,9.5-45.6,15.1C852.1,67.6,851.5,67.2,851,66z"/>
	<path class="st102" d="M729.7,84c-0.2,1.6,1.1,2,1.6,3c-4.6,0.7-8.3-1.8-11.9-5c1.5-1.9,4.3-0.3,5.5-3c0.2-0.3,0.6-0.4,0.9-0.2
		c0.6,0.5,1,1.3,1.4,1.9C728.1,81.7,729.2,82.5,729.7,84z"/>
	<path class="st90" d="M767.8,62c-3.8,1.9-7.9,0.9-11.8,1.9c-3.4,0.9-6.9,1.4-10.5,1.2c-1.2-0.1-2.3,0.7-3,1.9
		c-6.1,0-12.2,0.5-18.2,2c-0.1-2.7,0.1-5,3-5C740.7,64.2,754.2,61.3,767.8,62z"/>
	<path class="st104" d="M870.8,77c7-3.3,14.5-3.7,21.7-5.9c3.3-1,6.5-2.6,10-2.1c-6.7,3.2-13.9,4.2-20.9,5.9
		C878.1,75.8,874.6,77.4,870.8,77z"/>
	<path class="st104" d="M842.3,83c4.6-2.2,9.4-2.6,14.3-3C852,82.2,847.1,82.6,842.3,83z"/>
	<path class="st104" d="M836,81c0.8,3.6,3.2,1.3,4.8,2c-2.1,1.5-4.2,1.5-6.3,0C834.7,82,835.2,81.4,836,81z"/>
	<path class="st104" d="M856.6,80c1.4-1.8,3.2-0.7,4.8-1C859.9,80.8,858.2,79.7,856.6,80z"/>
	<path class="st104" d="M861.3,79c1.1-1.7,2.6-0.8,4-1C864.2,79.7,862.7,78.8,861.3,79z"/>
	<path class="st104" d="M866.9,78c1.1-1.7,2.6-0.8,4-1C869.7,78.7,868.2,77.8,866.9,78z"/>
	<path class="st40" d="M729.7,84c-1.2-0.8-2.6-1.2-3.2-3c-0.8-3.8,1.7-3.3,3.1-3.3c4.5,0,9-0.8,13.4-1.1c13.2-0.9,26.2-3.1,39.2-5.3
		c7.5-1.2,15.1-3,22.7-3.8c5.5-0.6,10.8-3.1,16.3-4.2c9.9-1.9,19.6-5,29.3-8.1c1.9-0.6,4.4-3,6.2,0.9c0,0.3,0,0.7,0,1
		c-1,0.7-1.8,1.7-2.4,3c-0.8,0.4-1.3,1-1.6,2c-0.2,0-0.6,0-0.8,0c-1-1.4-2.1-1.1-3.3-0.8c-15,4.8-30.3,8-45.5,11.4
		c-7.2,1.6-14.5,2-21.6,3.8c-8.1,2.1-16.3,2.7-24.4,4.1c-7.5,1.3-15.1,2.7-22.8,2.5C732.7,83,731,82.3,729.7,84z"/>
	<path class="st99" d="M856.6,56c-3-1.5-5.9,0.2-8.6,1.2c-9,3.4-18.3,5.1-27.5,7.7c-16.6,4.7-33.5,7-50.3,9.8
		c-13.5,2.2-27,4.2-40.7,4.3c-1.3,0-2.8-0.5-3.1,2c-0.6-0.4-0.8-1.2-0.8-2c-0.6-4.1,1.7-4.2,3.8-4.3c7.4-0.5,14.7-1.3,22-1.9
		c11-0.9,22-2.5,33-4.2c11.7-1.8,23.5-3.8,35-6.9c11.3-2.9,22.3-6.7,33.4-10.6c1.9-0.7,3.8-1.5,5.8-1.6c1.2-0.1,2.6-0.1,1.7,2.4
		c0,0.3,0,0.7,0,1C858.7,52.9,858,55.3,856.6,56z"/>
	<path class="st123" d="M860.5,52c-0.9-3-2.5-0.9-3.6-0.6c-7.5,2.4-14.9,5.5-22.4,7.6c-15.2,4.4-30.5,7.8-46,10.2
		c-13.5,2.1-27,4-40.6,5.5c-6.1,0.7-12.3,1.7-18.5,1.3c-1.7-0.1-3.6-0.1-3.8,3c-0.2,0-0.6,0-0.8,0c0-1.3,0-2.7,0-4
		c2.5-2,5.5-2.3,8.3-2.3c10.9,0.1,21.8-1.9,32.6-3c13.1-1.3,26.2-3.1,39.1-5.7c12-2.9,23.8-6.8,35.4-11c6.6-2.4,13.1-4.8,19.6-7.3
		c1-0.4,2-1.2,2.9,0.3C860.5,47,862.1,50.5,860.5,52z"/>
	<path class="st102" d="M805,64c-6.1,2.7-12.5,2.9-18.8,3.9c-12.2,2-24.4,3.6-36.6,5c-8.2,1-16.4,1.4-24.7,2.1
		c1.3-5,5.1-3.9,7.6-3.8c6.8,0.3,13.5-0.9,20.1-1.5c6.1-0.6,12.3-0.4,18.4-1.5c10.9-2.1,22.1-2.3,33.1-5.1
		C804.5,63.3,804.8,63.7,805,64z"/>
	<path class="st124" d="M852.6,180c2.3,0.4,5.6-1.6,5.5,4l0,0c-1.6,0.8-3.2,0.8-4.8,0C851.7,183.1,851.8,181.7,852.6,180z"/>
	<path class="st113" d="M853.4,184c1.6,0,3.2,0,4.8,0C856.6,185.5,855,185.5,853.4,184z"/>
	<path class="st125" d="M796.3,50c-0.6,0-1,0-1.6,0c-1.4-1.9-3.3-0.4-4.8-1.2c-1.7-0.9-4.4-0.8-4.3-4.1c0-2.8,1.5-4.5,3.7-5.7
		c2.9-1.5,5.8-2.4,8.7-2.7c4.1-0.4,8.3-1.4,12.4-0.1c1.7,0.5,3.6,1.4,3.7,3.8c0.1,2.4-1.3,4.2-3.2,5.1c-2.5,1.2-5.1,2.6-7.5,4
		c-0.2,0-0.6,0-0.8,0C800.7,50.3,798.3,48.6,796.3,50z"/>
	<path class="st114" d="M796.3,50c2-2,4.2-0.6,6.3-1C800.7,51,798.5,49.6,796.3,50z"/>
	<path class="st126" d="M797.3,47c-0.4,0-0.8,0-1.2,0c-2.1-0.1-4.6-0.9-4.6-3.4c0-2,2.5-3.3,4.6-3.6c3.1-0.5,6.2-1.3,9.4-1
		c1.6,0.1,3,0.8,3.3,2.8c0.2,1.9-1.2,2.7-2.5,3.2C803.2,46.1,800.4,46.9,797.3,47z"/>
</g>
</svg>
